<svg width="23" height="27" viewBox="0 0 23 27" fill="none" xmlns="http://www.w3.org/2000/svg">
<path d="M4.64941 20.0052C4.64941 20.6679 5.19033 21.2088 5.85586 21.2088H7.23506V24.6186C7.23506 25.4824 7.92891 26.1875 8.78135 26.1875C9.63662 26.1875 10.3276 25.4852 10.3276 24.6186V21.206H12.7349V24.6158C12.7349 25.4795 13.4287 26.1847 14.2812 26.1847C15.1364 26.1847 15.8274 25.4824 15.8274 24.6158V21.206H17.2066C17.8722 21.206 18.4131 20.6651 18.4131 20.0024V8.81019H4.64941V20.0052ZM14.7626 3.01019L16.0342 1.16937C16.1078 1.06175 16.0908 0.917316 15.9917 0.846515C15.8926 0.778546 15.751 0.812531 15.6773 0.920148L14.3576 2.8346C13.4882 2.49193 12.5196 2.30218 11.5029 2.30218C10.4862 2.30218 9.51768 2.49193 8.64824 2.8346L7.32852 0.92298C7.25488 0.815363 7.11328 0.778546 7.01416 0.849347C6.91504 0.917316 6.89805 1.05892 6.97168 1.1722L8.24326 3.01302C6.22119 3.95325 4.80518 5.7346 4.62393 7.81614H18.3876C18.2007 5.73177 16.7818 3.95042 14.7626 3.01019ZM8.59727 5.91302C8.44659 5.91302 8.2993 5.86834 8.17402 5.78463C8.04874 5.70092 7.9511 5.58194 7.89344 5.44274C7.83578 5.30353 7.82069 5.15036 7.85009 5.00258C7.87948 4.8548 7.95204 4.71906 8.05858 4.61252C8.16512 4.50598 8.30086 4.43342 8.44864 4.40402C8.59642 4.37463 8.7496 4.38972 8.8888 4.44738C9.028 4.50504 9.14698 4.60268 9.23069 4.72796C9.3144 4.85324 9.35908 5.00053 9.35908 5.1512C9.35856 5.35309 9.27813 5.54656 9.13537 5.68931C8.99262 5.83207 8.79915 5.9125 8.59727 5.91302ZM14.4992 5.91302C14.3485 5.91302 14.2013 5.86834 14.076 5.78463C13.9507 5.70092 13.8531 5.58194 13.7954 5.44274C13.7377 5.30353 13.7226 5.15036 13.752 5.00258C13.7814 4.8548 13.854 4.71906 13.9605 4.61252C14.0671 4.50598 14.2028 4.43342 14.3506 4.40402C14.4984 4.37463 14.6516 4.38972 14.7908 4.44738C14.93 4.50504 15.0489 4.60268 15.1326 4.72796C15.2164 4.85324 15.261 5.00053 15.261 5.1512C15.2605 5.35309 15.1801 5.54656 15.0373 5.68931C14.8946 5.83207 14.7011 5.9125 14.4992 5.91302ZM20.826 8.76487C19.9707 8.76487 19.2797 9.46722 19.2797 10.3338V16.4623C19.2797 17.3261 19.9735 18.0313 20.826 18.0313C21.6812 18.0313 22.3723 17.3289 22.3723 16.4623V10.331C22.3751 9.46439 21.6841 8.76487 20.826 8.76487ZM2.17422 8.76487C1.31895 8.76487 0.62793 9.46722 0.62793 10.3338V16.4623C0.62793 17.3261 1.32178 18.0313 2.17422 18.0313C3.02949 18.0313 3.72051 17.3289 3.72051 16.4623V10.331C3.72051 9.46439 3.02666 8.76487 2.17422 8.76487Z" fill="white"/>
</svg>
