<svg width="19" height="19" viewBox="0 0 19 19" fill="none" xmlns="http://www.w3.org/2000/svg">
<path d="M9.49997 7.02662C8.13805 7.02662 7.02663 8.13804 7.02663 9.49996C7.02663 10.8619 8.13805 11.9733 9.49997 11.9733C10.8619 11.9733 11.9733 10.8619 11.9733 9.49996C11.9733 8.13804 10.8619 7.02662 9.49997 7.02662ZM16.9181 9.49996C16.9181 8.47574 16.9274 7.4608 16.8699 6.43844C16.8124 5.25094 16.5415 4.19703 15.6731 3.32867C14.8029 2.45846 13.7508 2.18941 12.5633 2.13189C11.5391 2.07437 10.5242 2.08365 9.50182 2.08365C8.4776 2.08365 7.46266 2.07437 6.4403 2.13189C5.2528 2.18941 4.19889 2.46031 3.33053 3.32867C2.46032 4.19889 2.19127 5.25094 2.13375 6.43844C2.07624 7.46265 2.08551 8.4776 2.08551 9.49996C2.08551 10.5223 2.07624 11.5391 2.13375 12.5615C2.19127 13.749 2.46217 14.8029 3.33053 15.6712C4.20075 16.5415 5.2528 16.8105 6.4403 16.868C7.46452 16.9255 8.47946 16.9163 9.50182 16.9163C10.526 16.9163 11.541 16.9255 12.5633 16.868C13.7508 16.8105 14.8048 16.5396 15.6731 15.6712C16.5433 14.801 16.8124 13.749 16.8699 12.5615C16.9293 11.5391 16.9181 10.5242 16.9181 9.49996ZM9.49997 13.3055C7.39401 13.3055 5.6944 11.6059 5.6944 9.49996C5.6944 7.394 7.39401 5.69439 9.49997 5.69439C11.6059 5.69439 13.3055 7.394 13.3055 9.49996C13.3055 11.6059 11.6059 13.3055 9.49997 13.3055ZM13.4614 6.4273C12.9697 6.4273 12.5726 6.03023 12.5726 5.53853C12.5726 5.04683 12.9697 4.64976 13.4614 4.64976C13.9531 4.64976 14.3502 5.04683 14.3502 5.53853C14.3503 5.65529 14.3274 5.77093 14.2828 5.87882C14.2382 5.98672 14.1727 6.08476 14.0902 6.16732C14.0076 6.24987 13.9096 6.31533 13.8017 6.35995C13.6938 6.40456 13.5781 6.42745 13.4614 6.4273Z" fill="white"/>
</svg>
