<svg width="19" height="19" viewBox="0 0 19 19" fill="none" xmlns="http://www.w3.org/2000/svg">
<path d="M16.3281 2.07812H2.67188C2.34346 2.07812 2.07812 2.34346 2.07812 2.67188V16.3281C2.07812 16.6565 2.34346 16.9219 2.67188 16.9219H16.3281C16.6565 16.9219 16.9219 16.6565 16.9219 16.3281V2.67188C16.9219 2.34346 16.6565 2.07812 16.3281 2.07812ZM14.6137 6.41064H13.428C12.4984 6.41064 12.3185 6.85225 12.3185 7.50166V8.93223H14.5376L14.2481 11.1718H12.3185V16.9219H10.0047V11.1736H8.06943V8.93223H10.0047V7.28086C10.0047 5.36416 11.1755 4.31953 12.8862 4.31953C13.7063 4.31953 14.4096 4.38076 14.6155 4.40859V6.41064H14.6137Z" fill="white"/>
</svg>
