<svg width="21" height="25" viewBox="0 0 21 25" fill="none" xmlns="http://www.w3.org/2000/svg">
<path d="M17.1666 13.1712C17.1553 11.2397 18.0304 9.78408 19.7976 8.71074C18.8092 7.29473 17.3139 6.51592 15.3428 6.36582C13.4765 6.21855 11.4346 7.45332 10.6869 7.45332C9.89678 7.45332 8.08994 6.4168 6.66826 6.4168C3.73428 6.46211 0.616211 8.75605 0.616211 13.4232C0.616211 14.8024 0.868262 16.227 1.37236 17.6939C2.04639 19.6254 4.47627 24.3577 7.01094 24.2812C8.33633 24.2501 9.27373 23.341 10.9984 23.341C12.6722 23.341 13.5388 24.2812 15.0171 24.2812C17.5744 24.2444 19.7721 19.9426 20.4121 18.0055C16.9825 16.3884 17.1666 13.2703 17.1666 13.1712ZM14.1901 4.5335C15.626 2.82861 15.4957 1.27666 15.4532 0.71875C14.1845 0.792383 12.7175 1.58252 11.882 2.55391C10.9616 3.59609 10.4207 4.88467 10.5368 6.3375C11.9075 6.44229 13.1593 5.73711 14.1901 4.5335Z" fill="white"/>
</svg>
