<svg width="52" height="52" viewBox="0 0 52 52" fill="none" xmlns="http://www.w3.org/2000/svg">
<path d="M51.364 8.76599L8.71289 0.947266L0.958403 43.2479L43.6095 51.0667L51.364 8.76599Z" fill="#E7650B"/>
<path d="M15.1502 20.7995C14.302 20.644 13.7402 19.8372 13.8944 18.9959L14.2175 17.2334C14.3717 16.3922 15.1832 15.8371 16.0314 15.9926C16.8795 16.1481 17.4413 16.9549 17.2871 17.7961L16.964 19.5587C16.8172 20.3598 15.9984 20.955 15.1502 20.7995Z" fill="white"/>
<path d="M31.4122 23.8634C30.8063 23.7524 30.4098 23.1828 30.5126 22.622C30.5493 22.4217 30.8871 20.5791 32.3668 19.5668C33.1783 19.0117 34.1733 18.8215 35.2638 19.0214C36.3543 19.2213 37.2172 19.7522 37.779 20.559C38.763 22.0229 38.4326 23.8255 38.3885 24.0658C38.2784 24.6667 37.7056 25.0585 37.1071 24.9074C36.5012 24.7963 36.1451 24.2342 36.2552 23.6334C36.314 23.3129 36.3617 22.3694 35.9651 21.7998C35.7338 21.4676 35.3923 21.2808 34.8673 21.1845C33.1305 20.8661 32.7193 22.6539 32.6459 23.0545C32.5908 23.5826 32.018 23.9745 31.4122 23.8634Z" fill="white"/>
<path d="M25.6844 30.5146C25.6844 30.5146 27.3624 36.6187 30.8432 35.849C34.324 35.0794 33.2151 28.8312 33.2151 28.8312" fill="#C00A25"/>
<path d="M23.9367 30.484C15.98 29.0254 14.3314 25.4937 14.1551 25.0887C13.9201 24.5488 14.2065 23.8975 14.7499 23.6658C15.2934 23.4342 15.9506 23.7203 16.1856 24.2602C16.1856 24.2602 17.5809 27.1245 24.3259 28.3609C31.1113 29.6048 33.4722 27.4292 33.4796 27.3892C33.8908 26.9677 34.6068 26.9333 35.0327 27.3426C35.4586 27.752 35.4954 28.4625 35.0841 28.884C34.7757 29.2001 31.853 31.9352 23.9367 30.484Z" fill="white"/>
</svg>
