<svg width="51" height="324" viewBox="0 0 51 324" fill="none" xmlns="http://www.w3.org/2000/svg">
<path d="M50.4203 0.328003H0.333313V49.9538H50.4203V0.328003Z" fill="#C00A25"/>
<path d="M50.4203 54.9821H0.333313V104.608H50.4203V54.9821Z" fill="#C00A25"/>
<path d="M50.4203 109.636H0.333313V159.262H50.4203V109.636Z" fill="#C00A25"/>
<path d="M50.4676 164.29H0.380676V213.916H50.4676V164.29Z" fill="#C00A25"/>
<path d="M25.3767 72.2289C20.8233 72.2289 17.7403 76.1764 17.7403 79.842C17.7403 84.3534 21.6771 87.408 25.3767 87.408C29.9775 87.408 33.0605 83.5075 33.0605 79.842C33.0605 75.2835 29.0763 72.2289 25.3767 72.2289ZM25.3767 91.6375C19.021 91.6375 13.4241 86.1392 13.4241 79.842C13.4241 73.5448 19.021 67.9525 25.3293 67.9525C31.8273 67.9525 37.2818 73.4038 37.2818 79.842C37.3293 86.1392 31.7324 91.6375 25.3767 91.6375Z" fill="white"/>
<path d="M23.3371 36.3725V18.5147H14.1356L14.0881 14.2853H36.7126V18.5147H27.6059V36.3725H23.3371Z" fill="white"/>
<path d="M20.2541 123.359H15.9854V145.305H20.2541V123.359Z" fill="white"/>
<path d="M24.9972 136C24.2383 135.154 24.1909 133.838 24.9498 132.992L34.1513 122.889L37.3766 125.849L29.5031 134.543L37.6138 142.814L34.1513 145.634L24.9972 136Z" fill="white"/>
<path d="M23.2898 199.818V191.406L22.9578 191.359C15.7008 189.996 14.6099 183.793 14.5625 178.436H18.8313C18.8313 181.584 19.1159 187.411 25.4242 187.411C29.7404 187.411 31.9696 184.404 32.0645 178.436H36.3333C36.2384 182.759 35.0052 189.714 27.8906 191.406L27.5585 191.5V199.912H23.2898" fill="white"/>
<path d="M50.4203 273.646H0.333313V323.271H50.4203V273.646Z" fill="#E7650B"/>
<path d="M50.4676 218.944H0.380676V268.57H50.4676V218.944Z" fill="#C00A25"/>
<path d="M25.3767 236.191C20.8233 236.191 17.7403 240.139 17.7403 243.804C17.7403 248.316 21.6771 251.37 25.3767 251.37C29.9775 251.37 33.0605 247.47 33.0605 243.804C33.0605 239.246 29.0763 236.191 25.3767 236.191ZM25.3767 255.6C19.021 255.6 13.4716 250.102 13.4716 243.804C13.4716 237.507 19.0684 231.915 25.3767 231.915C31.8747 231.915 37.3293 237.366 37.3293 243.804C37.3767 250.102 31.7799 255.6 25.3767 255.6Z" fill="white"/>
<path d="M13.3293 297.19C12.3333 297.19 11.527 296.391 11.527 295.404V293.336C11.527 292.349 12.3333 291.55 13.3293 291.55C14.3254 291.55 15.1317 292.349 15.1317 293.336V295.404C15.1317 296.344 14.3254 297.19 13.3293 297.19Z" fill="white"/>
<path d="M32.4441 297.284C31.7326 297.284 31.1635 296.72 31.1635 296.062C31.1635 295.827 31.1635 293.665 32.6338 292.208C33.4401 291.409 34.531 290.986 35.8117 290.986C37.0923 290.986 38.1832 291.409 38.9895 292.208C40.4125 293.665 40.4125 295.78 40.4125 296.062C40.4125 296.767 39.8433 297.331 39.1318 297.284C38.4204 297.284 37.8986 296.72 37.8986 296.015C37.8986 295.639 37.7563 294.558 37.1872 293.994C36.8551 293.665 36.4283 293.524 35.8117 293.524C33.7721 293.524 33.6773 295.639 33.6773 296.109C33.7247 296.72 33.1555 297.284 32.4441 297.284Z" fill="white"/>
<path d="M27.3215 306.024C27.3215 306.024 30.4994 312.604 34.2939 311.006C38.0883 309.408 35.5271 302.547 35.5271 302.547" fill="#C00A25"/>
<path d="M25.3293 306.353C15.9855 306.353 13.3768 302.688 13.0922 302.265C12.7127 301.701 12.9025 300.902 13.4716 300.526C14.0408 300.15 14.8471 300.338 15.2266 300.902C15.2266 300.902 17.4084 303.863 25.3293 303.863C33.2977 303.863 35.527 300.902 35.527 300.855C35.9064 300.291 36.7127 300.103 37.2819 300.479C37.8511 300.855 38.0408 301.654 37.6614 302.218C37.3768 302.641 34.6258 306.353 25.3293 306.353Z" fill="white"/>
</svg>
