<svg width="80" height="331" viewBox="0 0 80 331" fill="none" xmlns="http://www.w3.org/2000/svg">
<path fill-rule="evenodd" clip-rule="evenodd" d="M9.8 12.0001L0 2.07336V0.655273L10 10.7845L20 0.655273V2.07336L10.2 12.0001H9.8ZM5.8 12.0001L0 6.12512V4.70697L7.2 12.0001H5.8ZM14.2 12.0001L20 6.12512V4.70697L12.8 12.0001H14.2Z" fill="#EDEDED"/>
<path fill-rule="evenodd" clip-rule="evenodd" d="M29.8 12.0001L20 2.07336V0.655273L30 10.7845L40 0.655273V2.07336L30.2 12.0001H29.8ZM25.8 12.0001L20 6.12512V4.70697L27.2 12.0001H25.8ZM34.2 12.0001L40 6.12512V4.70697L32.8 12.0001H34.2Z" fill="#EDEDED"/>
<path fill-rule="evenodd" clip-rule="evenodd" d="M49.8 12.0001L40 2.07336V0.655273L50 10.7845L60 0.655273V2.07336L50.2 12.0001H49.8ZM45.8 12.0001L40 6.12512V4.70697L47.2 12.0001H45.8ZM54.2 12.0001L60 6.12512V4.70697L52.8 12.0001H54.2Z" fill="#EDEDED"/>
<path fill-rule="evenodd" clip-rule="evenodd" d="M69.8 12.0001L60 2.07336V0.655273L70 10.7845L80 0.655273V2.07336L70.2 12.0001H69.8ZM65.8 12.0001L60 6.12512V4.70697L67.2 12.0001H65.8ZM74.2 12.0001L80 6.12512V4.70697L72.8 12.0001H74.2Z" fill="#EDEDED"/>
<path fill-rule="evenodd" clip-rule="evenodd" d="M9.8 24.1553L0 14.2286V12.8104L10 22.9398L20 12.8104V14.2286L10.2 24.1553H9.8ZM5.8 24.1553L0 18.2803V16.8621L7.2 24.1553H5.8ZM14.2 24.1553L20 18.2803V16.8621L12.8 24.1553H14.2ZM9.8 12.0001L10 12.2027L10.2 12.0001H9.8ZM5.8 12.0001L10 16.2544L14.2 12.0001H12.8L10 14.8363L7.2 12.0001H5.8Z" fill="#EDEDED"/>
<path fill-rule="evenodd" clip-rule="evenodd" d="M9.8 36.3104L0 26.3837V24.9656L10 35.0949L20 24.9656V26.3837L10.2 36.3104H9.8ZM5.8 36.3104L0 30.4354V29.0173L7.2 36.3104H5.8ZM14.2 36.3104L20 30.4354V29.0173L12.8 36.3104H14.2ZM9.8 24.1553L10 24.3578L10.2 24.1553H9.8ZM5.8 24.1553L10 28.4096L14.2 24.1553H12.8L10 26.9915L7.2 24.1553H5.8Z" fill="#EDEDED"/>
<path fill-rule="evenodd" clip-rule="evenodd" d="M29.8 24.1553L20 14.2286V12.8104L30 22.9398L40 12.8104V14.2286L30.2 24.1553H29.8ZM25.8 24.1553L20 18.2803V16.8621L27.2 24.1553H25.8ZM34.2 24.1553L40 18.2803V16.8621L32.8 24.1553H34.2ZM29.8 12.0001L30 12.2027L30.2 12.0001H29.8ZM25.8 12.0001L30 16.2544L34.2 12.0001H32.8L30 14.8363L27.2 12.0001H25.8Z" fill="#EDEDED"/>
<path fill-rule="evenodd" clip-rule="evenodd" d="M29.8 36.3104L20 26.3837V24.9656L30 35.0949L40 24.9656V26.3837L30.2 36.3104H29.8ZM25.8 36.3104L20 30.4354V29.0173L27.2 36.3104H25.8ZM34.2 36.3104L40 30.4354V29.0173L32.8 36.3104H34.2ZM29.8 24.1553L30 24.3578L30.2 24.1553H29.8ZM25.8 24.1553L30 28.4096L34.2 24.1553H32.8L30 26.9915L27.2 24.1553H25.8Z" fill="#EDEDED"/>
<path fill-rule="evenodd" clip-rule="evenodd" d="M49.8 24.1553L40 14.2286V12.8104L50 22.9398L60 12.8104V14.2286L50.2 24.1553H49.8ZM45.8 24.1553L40 18.2803V16.8621L47.2 24.1553H45.8ZM54.2 24.1553L60 18.2803V16.8621L52.8 24.1553H54.2ZM49.8 12.0001L50 12.2027L50.2 12.0001H49.8ZM45.8 12.0001L50 16.2544L54.2 12.0001H52.8L50 14.8363L47.2 12.0001H45.8Z" fill="#EDEDED"/>
<path fill-rule="evenodd" clip-rule="evenodd" d="M49.8 36.3104L40 26.3837V24.9656L50 35.0949L60 24.9656V26.3837L50.2 36.3104H49.8ZM45.8 36.3104L40 30.4354V29.0173L47.2 36.3104H45.8ZM54.2 36.3104L60 30.4354V29.0173L52.8 36.3104H54.2ZM49.8 24.1553L50 24.3578L50.2 24.1553H49.8ZM45.8 24.1553L50 28.4096L54.2 24.1553H52.8L50 26.9915L47.2 24.1553H45.8Z" fill="#EDEDED"/>
<path fill-rule="evenodd" clip-rule="evenodd" d="M69.8 24.1553L60 14.2286V12.8104L70 22.9398L80 12.8104V14.2286L70.2 24.1553H69.8ZM65.8 24.1553L60 18.2803V16.8621L67.2 24.1553H65.8ZM74.2 24.1553L80 18.2803V16.8621L72.8 24.1553H74.2ZM69.8 12.0001L70 12.2027L70.2 12.0001H69.8ZM65.8 12.0001L70 16.2544L74.2 12.0001H72.8L70 14.8363L67.2 12.0001H65.8Z" fill="#EDEDED"/>
<path fill-rule="evenodd" clip-rule="evenodd" d="M69.8 36.3104L60 26.3837V24.9656L70 35.0949L80 24.9656V26.3837L70.2 36.3104H69.8ZM65.8 36.3104L60 30.4354V29.0173L67.2 36.3104H65.8ZM74.2 36.3104L80 30.4354V29.0173L72.8 36.3104H74.2ZM69.8 24.1553L70 24.3578L70.2 24.1553H69.8ZM65.8 24.1553L70 28.4096L74.2 24.1553H72.8L70 26.9915L67.2 24.1553H65.8Z" fill="#EDEDED"/>
<path fill-rule="evenodd" clip-rule="evenodd" d="M9.8 48.4656L0 38.5389V37.1208L10 47.2501L20 37.1208V38.5389L10.2 48.4656H9.8ZM5.8 48.4656L0 42.5906V41.1725L7.2 48.4656H5.8ZM14.2 48.4656L20 42.5906V41.1725L12.8 48.4656H14.2ZM9.8 36.3104L10 36.5131L10.2 36.3104H9.8ZM5.8 36.3104L10 40.5648L14.2 36.3104H12.8L10 39.1466L7.2 36.3104H5.8Z" fill="#EDEDED"/>
<path fill-rule="evenodd" clip-rule="evenodd" d="M9.8 60.6208L0 50.6941V49.2759L10 59.4053L20 49.2759V50.6941L10.2 60.6208H9.8ZM5.8 60.6208L0 54.7458V53.3276L7.2 60.6208H5.8ZM14.2 60.6208L20 54.7458V53.3276L12.8 60.6208H14.2ZM9.8 48.4656L10 48.6682L10.2 48.4656H9.8ZM5.8 48.4656L10 52.7199L14.2 48.4656H12.8L10 51.3018L7.2 48.4656H5.8Z" fill="#EDEDED"/>
<path fill-rule="evenodd" clip-rule="evenodd" d="M29.8 48.4656L20 38.5389V37.1208L30 47.2501L40 37.1208V38.5389L30.2 48.4656H29.8ZM25.8 48.4656L20 42.5906V41.1725L27.2 48.4656H25.8ZM34.2 48.4656L40 42.5906V41.1725L32.8 48.4656H34.2ZM29.8 36.3104L30 36.5131L30.2 36.3104H29.8ZM25.8 36.3104L30 40.5648L34.2 36.3104H32.8L30 39.1466L27.2 36.3104H25.8Z" fill="#EDEDED"/>
<path fill-rule="evenodd" clip-rule="evenodd" d="M29.8 60.6208L20 50.6941V49.2759L30 59.4053L40 49.2759V50.6941L30.2 60.6208H29.8ZM25.8 60.6208L20 54.7458V53.3276L27.2 60.6208H25.8ZM34.2 60.6208L40 54.7458V53.3276L32.8 60.6208H34.2ZM29.8 48.4656L30 48.6682L30.2 48.4656H29.8ZM25.8 48.4656L30 52.7199L34.2 48.4656H32.8L30 51.3018L27.2 48.4656H25.8Z" fill="#EDEDED"/>
<path fill-rule="evenodd" clip-rule="evenodd" d="M49.8 48.4656L40 38.5389V37.1208L50 47.2501L60 37.1208V38.5389L50.2 48.4656H49.8ZM45.8 48.4656L40 42.5906V41.1725L47.2 48.4656H45.8ZM54.2 48.4656L60 42.5906V41.1725L52.8 48.4656H54.2ZM49.8 36.3104L50 36.5131L50.2 36.3104H49.8ZM45.8 36.3104L50 40.5648L54.2 36.3104H52.8L50 39.1466L47.2 36.3104H45.8Z" fill="#EDEDED"/>
<path fill-rule="evenodd" clip-rule="evenodd" d="M49.8 60.6208L40 50.6941V49.2759L50 59.4053L60 49.2759V50.6941L50.2 60.6208H49.8ZM45.8 60.6208L40 54.7458V53.3276L47.2 60.6208H45.8ZM54.2 60.6208L60 54.7458V53.3276L52.8 60.6208H54.2ZM49.8 48.4656L50 48.6682L50.2 48.4656H49.8ZM45.8 48.4656L50 52.7199L54.2 48.4656H52.8L50 51.3018L47.2 48.4656H45.8Z" fill="#EDEDED"/>
<path fill-rule="evenodd" clip-rule="evenodd" d="M69.8 48.4656L60 38.5389V37.1208L70 47.2501L80 37.1208V38.5389L70.2 48.4656H69.8ZM65.8 48.4656L60 42.5906V41.1725L67.2 48.4656H65.8ZM74.2 48.4656L80 42.5906V41.1725L72.8 48.4656H74.2ZM69.8 36.3104L70 36.5131L70.2 36.3104H69.8ZM65.8 36.3104L70 40.5648L74.2 36.3104H72.8L70 39.1466L67.2 36.3104H65.8Z" fill="#EDEDED"/>
<path fill-rule="evenodd" clip-rule="evenodd" d="M69.8 60.6208L60 50.6941V49.2759L70 59.4053L80 49.2759V50.6941L70.2 60.6208H69.8ZM65.8 60.6208L60 54.7458V53.3276L67.2 60.6208H65.8ZM74.2 60.6208L80 54.7458V53.3276L72.8 60.6208H74.2ZM69.8 48.4656L70 48.6682L70.2 48.4656H69.8ZM65.8 48.4656L70 52.7199L74.2 48.4656H72.8L70 51.3018L67.2 48.4656H65.8Z" fill="#EDEDED"/>
<path fill-rule="evenodd" clip-rule="evenodd" d="M9.8 72.7759L0 62.8492V61.4311L10 71.5604L20 61.4311V62.8492L10.2 72.7759H9.8ZM5.8 72.7759L0 66.9009V65.4828L7.2 72.7759H5.8ZM14.2 72.7759L20 66.9009V65.4828L12.8 72.7759H14.2ZM9.8 60.6208L10 60.8234L10.2 60.6208H9.8ZM5.8 60.6208L10 64.8751L14.2 60.6208H12.8L10 63.457L7.2 60.6208H5.8Z" fill="#EDEDED"/>
<path fill-rule="evenodd" clip-rule="evenodd" d="M9.8 84.9312L0 75.0044V73.5863L10 83.7156L20 73.5863V75.0044L10.2 84.9312H9.8ZM5.8 84.9312L0 79.0562V77.638L7.2 84.9312H5.8ZM14.2 84.9312L20 79.0562V77.638L12.8 84.9312H14.2ZM9.8 72.7759L10 72.9786L10.2 72.7759H9.8ZM5.8 72.7759L10 77.0303L14.2 72.7759H12.8L10 75.6121L7.2 72.7759H5.8Z" fill="#EDEDED"/>
<path fill-rule="evenodd" clip-rule="evenodd" d="M29.8 72.7759L20 62.8492V61.4311L30 71.5604L40 61.4311V62.8492L30.2 72.7759H29.8ZM25.8 72.7759L20 66.9009V65.4828L27.2 72.7759H25.8ZM34.2 72.7759L40 66.9009V65.4828L32.8 72.7759H34.2ZM29.8 60.6208L30 60.8234L30.2 60.6208H29.8ZM25.8 60.6208L30 64.8751L34.2 60.6208H32.8L30 63.457L27.2 60.6208H25.8Z" fill="#EDEDED"/>
<path fill-rule="evenodd" clip-rule="evenodd" d="M29.8 84.9312L20 75.0044V73.5863L30 83.7156L40 73.5863V75.0044L30.2 84.9312H29.8ZM25.8 84.9312L20 79.0562V77.638L27.2 84.9312H25.8ZM34.2 84.9312L40 79.0562V77.638L32.8 84.9312H34.2ZM29.8 72.7759L30 72.9786L30.2 72.7759H29.8ZM25.8 72.7759L30 77.0303L34.2 72.7759H32.8L30 75.6121L27.2 72.7759H25.8Z" fill="#EDEDED"/>
<path fill-rule="evenodd" clip-rule="evenodd" d="M49.8 72.7759L40 62.8492V61.4311L50 71.5604L60 61.4311V62.8492L50.2 72.7759H49.8ZM45.8 72.7759L40 66.9009V65.4828L47.2 72.7759H45.8ZM54.2 72.7759L60 66.9009V65.4828L52.8 72.7759H54.2ZM49.8 60.6208L50 60.8234L50.2 60.6208H49.8ZM45.8 60.6208L50 64.8751L54.2 60.6208H52.8L50 63.457L47.2 60.6208H45.8Z" fill="#EDEDED"/>
<path fill-rule="evenodd" clip-rule="evenodd" d="M49.8 84.9312L40 75.0044V73.5863L50 83.7156L60 73.5863V75.0044L50.2 84.9312H49.8ZM45.8 84.9312L40 79.0562V77.638L47.2 84.9312H45.8ZM54.2 84.9312L60 79.0562V77.638L52.8 84.9312H54.2ZM49.8 72.7759L50 72.9786L50.2 72.7759H49.8ZM45.8 72.7759L50 77.0303L54.2 72.7759H52.8L50 75.6121L47.2 72.7759H45.8Z" fill="#EDEDED"/>
<path fill-rule="evenodd" clip-rule="evenodd" d="M69.8 72.7759L60 62.8492V61.4311L70 71.5604L80 61.4311V62.8492L70.2 72.7759H69.8ZM65.8 72.7759L60 66.9009V65.4828L67.2 72.7759H65.8ZM74.2 72.7759L80 66.9009V65.4828L72.8 72.7759H74.2ZM69.8 60.6208L70 60.8234L70.2 60.6208H69.8ZM65.8 60.6208L70 64.8751L74.2 60.6208H72.8L70 63.457L67.2 60.6208H65.8Z" fill="#EDEDED"/>
<path fill-rule="evenodd" clip-rule="evenodd" d="M69.8 84.9312L60 75.0044V73.5863L70 83.7156L80 73.5863V75.0044L70.2 84.9312H69.8ZM65.8 84.9312L60 79.0562V77.638L67.2 84.9312H65.8ZM74.2 84.9312L80 79.0562V77.638L72.8 84.9312H74.2ZM69.8 72.7759L70 72.9786L70.2 72.7759H69.8ZM65.8 72.7759L70 77.0303L74.2 72.7759H72.8L70 75.6121L67.2 72.7759H65.8Z" fill="#EDEDED"/>
<path fill-rule="evenodd" clip-rule="evenodd" d="M9.8 97.0863L0 87.1596V85.7415L10 95.8708L20 85.7415V87.1596L10.2 97.0863H9.8ZM5.8 97.0863L0 91.2113V89.7932L7.2 97.0863H5.8ZM14.2 97.0863L20 91.2113V89.7932L12.8 97.0863H14.2ZM9.8 84.9312L10 85.1337L10.2 84.9312H9.8ZM5.8 84.9312L10 89.1854L14.2 84.9312H12.8L10 87.7673L7.2 84.9312H5.8Z" fill="#EDEDED"/>
<path fill-rule="evenodd" clip-rule="evenodd" d="M9.8 109.241L0 99.3148V97.8966L10 108.026L20 97.8966V99.3148L10.2 109.241H9.8ZM5.8 109.241L0 103.366V101.948L7.2 109.241H5.8ZM14.2 109.241L20 103.366V101.948L12.8 109.241H14.2ZM9.8 97.0863L10 97.2889L10.2 97.0863H9.8ZM5.8 97.0863L10 101.341L14.2 97.0863H12.8L10 99.9225L7.2 97.0863H5.8Z" fill="#EDEDED"/>
<path fill-rule="evenodd" clip-rule="evenodd" d="M29.8 97.0863L20 87.1596V85.7415L30 95.8708L40 85.7415V87.1596L30.2 97.0863H29.8ZM25.8 97.0863L20 91.2113V89.7932L27.2 97.0863H25.8ZM34.2 97.0863L40 91.2113V89.7932L32.8 97.0863H34.2ZM29.8 84.9312L30 85.1337L30.2 84.9312H29.8ZM25.8 84.9312L30 89.1854L34.2 84.9312H32.8L30 87.7673L27.2 84.9312H25.8Z" fill="#EDEDED"/>
<path fill-rule="evenodd" clip-rule="evenodd" d="M29.8 109.241L20 99.3148V97.8966L30 108.026L40 97.8966V99.3148L30.2 109.241H29.8ZM25.8 109.241L20 103.366V101.948L27.2 109.241H25.8ZM34.2 109.241L40 103.366V101.948L32.8 109.241H34.2ZM29.8 97.0863L30 97.2889L30.2 97.0863H29.8ZM25.8 97.0863L30 101.341L34.2 97.0863H32.8L30 99.9225L27.2 97.0863H25.8Z" fill="#EDEDED"/>
<path fill-rule="evenodd" clip-rule="evenodd" d="M49.8 97.0863L40 87.1596V85.7415L50 95.8708L60 85.7415V87.1596L50.2 97.0863H49.8ZM45.8 97.0863L40 91.2113V89.7932L47.2 97.0863H45.8ZM54.2 97.0863L60 91.2113V89.7932L52.8 97.0863H54.2ZM49.8 84.9312L50 85.1337L50.2 84.9312H49.8ZM45.8 84.9312L50 89.1854L54.2 84.9312H52.8L50 87.7673L47.2 84.9312H45.8Z" fill="#EDEDED"/>
<path fill-rule="evenodd" clip-rule="evenodd" d="M49.8 109.241L40 99.3148V97.8966L50 108.026L60 97.8966V99.3148L50.2 109.241H49.8ZM45.8 109.241L40 103.366V101.948L47.2 109.241H45.8ZM54.2 109.241L60 103.366V101.948L52.8 109.241H54.2ZM49.8 97.0863L50 97.2889L50.2 97.0863H49.8ZM45.8 97.0863L50 101.341L54.2 97.0863H52.8L50 99.9225L47.2 97.0863H45.8Z" fill="#EDEDED"/>
<path fill-rule="evenodd" clip-rule="evenodd" d="M69.8 97.0863L60 87.1596V85.7415L70 95.8708L80 85.7415V87.1596L70.2 97.0863H69.8ZM65.8 97.0863L60 91.2113V89.7932L67.2 97.0863H65.8ZM74.2 97.0863L80 91.2113V89.7932L72.8 97.0863H74.2ZM69.8 84.9312L70 85.1337L70.2 84.9312H69.8ZM65.8 84.9312L70 89.1854L74.2 84.9312H72.8L70 87.7673L67.2 84.9312H65.8Z" fill="#EDEDED"/>
<path fill-rule="evenodd" clip-rule="evenodd" d="M69.8 109.241L60 99.3148V97.8966L70 108.026L80 97.8966V99.3148L70.2 109.241H69.8ZM65.8 109.241L60 103.366V101.948L67.2 109.241H65.8ZM74.2 109.241L80 103.366V101.948L72.8 109.241H74.2ZM69.8 97.0863L70 97.2889L70.2 97.0863H69.8ZM65.8 97.0863L70 101.341L74.2 97.0863H72.8L70 99.9225L67.2 97.0863H65.8Z" fill="#EDEDED"/>
<path fill-rule="evenodd" clip-rule="evenodd" d="M9.8 121.397L0 111.47V110.052L10 120.181L20 110.052V111.47L10.2 121.397H9.8ZM5.8 121.397L0 115.522V114.104L7.2 121.397H5.8ZM14.2 121.397L20 115.522V114.104L12.8 121.397H14.2ZM9.8 109.241L10 109.444L10.2 109.241H9.8ZM5.8 109.241L10 113.496L14.2 109.241H12.8L10 112.078L7.2 109.241H5.8Z" fill="#EDEDED"/>
<path fill-rule="evenodd" clip-rule="evenodd" d="M9.8 133.552L0 123.625V122.207L10 132.336L20 122.207V123.625L10.2 133.552H9.8ZM5.8 133.552L0 127.677V126.259L7.2 133.552H5.8ZM14.2 133.552L20 127.677V126.259L12.8 133.552H14.2ZM9.8 121.397L10 121.599L10.2 121.397H9.8ZM5.8 121.397L10 125.651L14.2 121.397H12.8L10 124.233L7.2 121.397H5.8Z" fill="#EDEDED"/>
<path fill-rule="evenodd" clip-rule="evenodd" d="M29.8 121.397L20 111.47V110.052L30 120.181L40 110.052V111.47L30.2 121.397H29.8ZM25.8 121.397L20 115.522V114.104L27.2 121.397H25.8ZM34.2 121.397L40 115.522V114.104L32.8 121.397H34.2ZM29.8 109.241L30 109.444L30.2 109.241H29.8ZM25.8 109.241L30 113.496L34.2 109.241H32.8L30 112.078L27.2 109.241H25.8Z" fill="#EDEDED"/>
<path fill-rule="evenodd" clip-rule="evenodd" d="M29.8 133.552L20 123.625V122.207L30 132.336L40 122.207V123.625L30.2 133.552H29.8ZM25.8 133.552L20 127.677V126.259L27.2 133.552H25.8ZM34.2 133.552L40 127.677V126.259L32.8 133.552H34.2ZM29.8 121.397L30 121.599L30.2 121.397H29.8ZM25.8 121.397L30 125.651L34.2 121.397H32.8L30 124.233L27.2 121.397H25.8Z" fill="#EDEDED"/>
<path fill-rule="evenodd" clip-rule="evenodd" d="M49.8 121.397L40 111.47V110.052L50 120.181L60 110.052V111.47L50.2 121.397H49.8ZM45.8 121.397L40 115.522V114.104L47.2 121.397H45.8ZM54.2 121.397L60 115.522V114.104L52.8 121.397H54.2ZM49.8 109.241L50 109.444L50.2 109.241H49.8ZM45.8 109.241L50 113.496L54.2 109.241H52.8L50 112.078L47.2 109.241H45.8Z" fill="#EDEDED"/>
<path fill-rule="evenodd" clip-rule="evenodd" d="M49.8 133.552L40 123.625V122.207L50 132.336L60 122.207V123.625L50.2 133.552H49.8ZM45.8 133.552L40 127.677V126.259L47.2 133.552H45.8ZM54.2 133.552L60 127.677V126.259L52.8 133.552H54.2ZM49.8 121.397L50 121.599L50.2 121.397H49.8ZM45.8 121.397L50 125.651L54.2 121.397H52.8L50 124.233L47.2 121.397H45.8Z" fill="#EDEDED"/>
<path fill-rule="evenodd" clip-rule="evenodd" d="M69.8 121.397L60 111.47V110.052L70 120.181L80 110.052V111.47L70.2 121.397H69.8ZM65.8 121.397L60 115.522V114.104L67.2 121.397H65.8ZM74.2 121.397L80 115.522V114.104L72.8 121.397H74.2ZM69.8 109.241L70 109.444L70.2 109.241H69.8ZM65.8 109.241L70 113.496L74.2 109.241H72.8L70 112.078L67.2 109.241H65.8Z" fill="#EDEDED"/>
<path fill-rule="evenodd" clip-rule="evenodd" d="M69.8 133.552L60 123.625V122.207L70 132.336L80 122.207V123.625L70.2 133.552H69.8ZM65.8 133.552L60 127.677V126.259L67.2 133.552H65.8ZM74.2 133.552L80 127.677V126.259L72.8 133.552H74.2ZM69.8 121.397L70 121.599L70.2 121.397H69.8ZM65.8 121.397L70 125.651L74.2 121.397H72.8L70 124.233L67.2 121.397H65.8Z" fill="#EDEDED"/>
<path fill-rule="evenodd" clip-rule="evenodd" d="M9.8 145.707L0 135.78V134.362L10 144.491L20 134.362V135.78L10.2 145.707H9.8ZM5.8 145.707L0 139.832V138.414L7.2 145.707H5.8ZM14.2 145.707L20 139.832V138.414L12.8 145.707H14.2ZM9.8 133.552L10 133.754L10.2 133.552H9.8ZM5.8 133.552L10 137.806L14.2 133.552H12.8L10 136.388L7.2 133.552H5.8Z" fill="#EDEDED"/>
<path fill-rule="evenodd" clip-rule="evenodd" d="M9.8 157.862L0 147.935V146.517L10 156.647L20 146.517V147.935L10.2 157.862H9.8ZM5.8 157.862L0 151.987V150.569L7.2 157.862H5.8ZM14.2 157.862L20 151.987V150.569L12.8 157.862H14.2ZM9.8 145.707L10 145.91L10.2 145.707H9.8ZM5.8 145.707L10 149.961L14.2 145.707H12.8L10 148.543L7.2 145.707H5.8Z" fill="#EDEDED"/>
<path fill-rule="evenodd" clip-rule="evenodd" d="M29.8 145.707L20 135.78V134.362L30 144.491L40 134.362V135.78L30.2 145.707H29.8ZM25.8 145.707L20 139.832V138.414L27.2 145.707H25.8ZM34.2 145.707L40 139.832V138.414L32.8 145.707H34.2ZM29.8 133.552L30 133.754L30.2 133.552H29.8ZM25.8 133.552L30 137.806L34.2 133.552H32.8L30 136.388L27.2 133.552H25.8Z" fill="#EDEDED"/>
<path fill-rule="evenodd" clip-rule="evenodd" d="M29.8 157.862L20 147.935V146.517L30 156.647L40 146.517V147.935L30.2 157.862H29.8ZM25.8 157.862L20 151.987V150.569L27.2 157.862H25.8ZM34.2 157.862L40 151.987V150.569L32.8 157.862H34.2ZM29.8 145.707L30 145.91L30.2 145.707H29.8ZM25.8 145.707L30 149.961L34.2 145.707H32.8L30 148.543L27.2 145.707H25.8Z" fill="#EDEDED"/>
<path fill-rule="evenodd" clip-rule="evenodd" d="M49.8 145.707L40 135.78V134.362L50 144.491L60 134.362V135.78L50.2 145.707H49.8ZM45.8 145.707L40 139.832V138.414L47.2 145.707H45.8ZM54.2 145.707L60 139.832V138.414L52.8 145.707H54.2ZM49.8 133.552L50 133.754L50.2 133.552H49.8ZM45.8 133.552L50 137.806L54.2 133.552H52.8L50 136.388L47.2 133.552H45.8Z" fill="#EDEDED"/>
<path fill-rule="evenodd" clip-rule="evenodd" d="M49.8 157.862L40 147.935V146.517L50 156.647L60 146.517V147.935L50.2 157.862H49.8ZM45.8 157.862L40 151.987V150.569L47.2 157.862H45.8ZM54.2 157.862L60 151.987V150.569L52.8 157.862H54.2ZM49.8 145.707L50 145.91L50.2 145.707H49.8ZM45.8 145.707L50 149.961L54.2 145.707H52.8L50 148.543L47.2 145.707H45.8Z" fill="#EDEDED"/>
<path fill-rule="evenodd" clip-rule="evenodd" d="M69.8 145.707L60 135.78V134.362L70 144.491L80 134.362V135.78L70.2 145.707H69.8ZM65.8 145.707L60 139.832V138.414L67.2 145.707H65.8ZM74.2 145.707L80 139.832V138.414L72.8 145.707H74.2ZM69.8 133.552L70 133.754L70.2 133.552H69.8ZM65.8 133.552L70 137.806L74.2 133.552H72.8L70 136.388L67.2 133.552H65.8Z" fill="#EDEDED"/>
<path fill-rule="evenodd" clip-rule="evenodd" d="M69.8 157.862L60 147.935V146.517L70 156.647L80 146.517V147.935L70.2 157.862H69.8ZM65.8 157.862L60 151.987V150.569L67.2 157.862H65.8ZM74.2 157.862L80 151.987V150.569L72.8 157.862H74.2ZM69.8 145.707L70 145.91L70.2 145.707H69.8ZM65.8 145.707L70 149.961L74.2 145.707H72.8L70 148.543L67.2 145.707H65.8Z" fill="#EDEDED"/>
<path fill-rule="evenodd" clip-rule="evenodd" d="M9.8 170.017L0 160.091V158.672L10 168.802L20 158.672V160.091L10.2 170.017H9.8ZM5.8 170.017L0 164.142V162.724L7.2 170.017H5.8ZM14.2 170.017L20 164.142V162.724L12.8 170.017H14.2ZM9.8 157.862L10 158.065L10.2 157.862H9.8ZM5.8 157.862L10 162.116L14.2 157.862H12.8L10 160.698L7.2 157.862H5.8Z" fill="#EDEDED"/>
<path fill-rule="evenodd" clip-rule="evenodd" d="M9.8 182.172L0 172.246V170.828L10 180.957L20 170.828V172.246L10.2 182.172H9.8ZM5.8 182.172L0 176.297V174.879L7.2 182.172H5.8ZM14.2 182.172L20 176.297V174.879L12.8 182.172H14.2ZM9.8 170.017L10 170.22L10.2 170.017H9.8ZM5.8 170.017L10 174.272L14.2 170.017H12.8L10 172.854L7.2 170.017H5.8Z" fill="#EDEDED"/>
<path fill-rule="evenodd" clip-rule="evenodd" d="M29.8 170.017L20 160.091V158.672L30 168.802L40 158.672V160.091L30.2 170.017H29.8ZM25.8 170.017L20 164.142V162.724L27.2 170.017H25.8ZM34.2 170.017L40 164.142V162.724L32.8 170.017H34.2ZM29.8 157.862L30 158.065L30.2 157.862H29.8ZM25.8 157.862L30 162.116L34.2 157.862H32.8L30 160.698L27.2 157.862H25.8Z" fill="#EDEDED"/>
<path fill-rule="evenodd" clip-rule="evenodd" d="M29.8 182.172L20 172.246V170.828L30 180.957L40 170.828V172.246L30.2 182.172H29.8ZM25.8 182.172L20 176.297V174.879L27.2 182.172H25.8ZM34.2 182.172L40 176.297V174.879L32.8 182.172H34.2ZM29.8 170.017L30 170.22L30.2 170.017H29.8ZM25.8 170.017L30 174.272L34.2 170.017H32.8L30 172.854L27.2 170.017H25.8Z" fill="#EDEDED"/>
<path fill-rule="evenodd" clip-rule="evenodd" d="M49.8 170.017L40 160.091V158.672L50 168.802L60 158.672V160.091L50.2 170.017H49.8ZM45.8 170.017L40 164.142V162.724L47.2 170.017H45.8ZM54.2 170.017L60 164.142V162.724L52.8 170.017H54.2ZM49.8 157.862L50 158.065L50.2 157.862H49.8ZM45.8 157.862L50 162.116L54.2 157.862H52.8L50 160.698L47.2 157.862H45.8Z" fill="#EDEDED"/>
<path fill-rule="evenodd" clip-rule="evenodd" d="M49.8 182.172L40 172.246V170.828L50 180.957L60 170.828V172.246L50.2 182.172H49.8ZM45.8 182.172L40 176.297V174.879L47.2 182.172H45.8ZM54.2 182.172L60 176.297V174.879L52.8 182.172H54.2ZM49.8 170.017L50 170.22L50.2 170.017H49.8ZM45.8 170.017L50 174.272L54.2 170.017H52.8L50 172.854L47.2 170.017H45.8Z" fill="#EDEDED"/>
<path fill-rule="evenodd" clip-rule="evenodd" d="M69.8 170.017L60 160.091V158.672L70 168.802L80 158.672V160.091L70.2 170.017H69.8ZM65.8 170.017L60 164.142V162.724L67.2 170.017H65.8ZM74.2 170.017L80 164.142V162.724L72.8 170.017H74.2ZM69.8 157.862L70 158.065L70.2 157.862H69.8ZM65.8 157.862L70 162.116L74.2 157.862H72.8L70 160.698L67.2 157.862H65.8Z" fill="#EDEDED"/>
<path fill-rule="evenodd" clip-rule="evenodd" d="M69.8 182.172L60 172.246V170.828L70 180.957L80 170.828V172.246L70.2 182.172H69.8ZM65.8 182.172L60 176.297V174.879L67.2 182.172H65.8ZM74.2 182.172L80 176.297V174.879L72.8 182.172H74.2ZM69.8 170.017L70 170.22L70.2 170.017H69.8ZM65.8 170.017L70 174.272L74.2 170.017H72.8L70 172.854L67.2 170.017H65.8Z" fill="#EDEDED"/>
<path fill-rule="evenodd" clip-rule="evenodd" d="M9.8 194.328L0 184.401V182.983L10 193.112L20 182.983V184.401L10.2 194.328H9.8ZM5.8 194.328L0 188.453V187.035L7.2 194.328H5.8ZM14.2 194.328L20 188.453V187.035L12.8 194.328H14.2ZM9.8 182.172L10 182.375L10.2 182.172H9.8ZM5.8 182.172L10 186.427L14.2 182.172H12.8L10 185.009L7.2 182.172H5.8Z" fill="#EDEDED"/>
<path fill-rule="evenodd" clip-rule="evenodd" d="M9.8 206.483L0 196.556V195.138L10 205.267L20 195.138V196.556L10.2 206.483H9.8ZM5.8 206.483L0 200.608V199.19L7.2 206.483H5.8ZM14.2 206.483L20 200.608V199.19L12.8 206.483H14.2ZM9.8 194.328L10 194.53L10.2 194.328H9.8ZM5.8 194.328L10 198.582L14.2 194.328H12.8L10 197.164L7.2 194.328H5.8Z" fill="#EDEDED"/>
<path fill-rule="evenodd" clip-rule="evenodd" d="M29.8 194.328L20 184.401V182.983L30 193.112L40 182.983V184.401L30.2 194.328H29.8ZM25.8 194.328L20 188.453V187.035L27.2 194.328H25.8ZM34.2 194.328L40 188.453V187.035L32.8 194.328H34.2ZM29.8 182.172L30 182.375L30.2 182.172H29.8ZM25.8 182.172L30 186.427L34.2 182.172H32.8L30 185.009L27.2 182.172H25.8Z" fill="#EDEDED"/>
<path fill-rule="evenodd" clip-rule="evenodd" d="M29.8 206.483L20 196.556V195.138L30 205.267L40 195.138V196.556L30.2 206.483H29.8ZM25.8 206.483L20 200.608V199.19L27.2 206.483H25.8ZM34.2 206.483L40 200.608V199.19L32.8 206.483H34.2ZM29.8 194.328L30 194.53L30.2 194.328H29.8ZM25.8 194.328L30 198.582L34.2 194.328H32.8L30 197.164L27.2 194.328H25.8Z" fill="#EDEDED"/>
<path fill-rule="evenodd" clip-rule="evenodd" d="M49.8 194.328L40 184.401V182.983L50 193.112L60 182.983V184.401L50.2 194.328H49.8ZM45.8 194.328L40 188.453V187.035L47.2 194.328H45.8ZM54.2 194.328L60 188.453V187.035L52.8 194.328H54.2ZM49.8 182.172L50 182.375L50.2 182.172H49.8ZM45.8 182.172L50 186.427L54.2 182.172H52.8L50 185.009L47.2 182.172H45.8Z" fill="#EDEDED"/>
<path fill-rule="evenodd" clip-rule="evenodd" d="M49.8 206.483L40 196.556V195.138L50 205.267L60 195.138V196.556L50.2 206.483H49.8ZM45.8 206.483L40 200.608V199.19L47.2 206.483H45.8ZM54.2 206.483L60 200.608V199.19L52.8 206.483H54.2ZM49.8 194.328L50 194.53L50.2 194.328H49.8ZM45.8 194.328L50 198.582L54.2 194.328H52.8L50 197.164L47.2 194.328H45.8Z" fill="#EDEDED"/>
<path fill-rule="evenodd" clip-rule="evenodd" d="M69.8 194.328L60 184.401V182.983L70 193.112L80 182.983V184.401L70.2 194.328H69.8ZM65.8 194.328L60 188.453V187.035L67.2 194.328H65.8ZM74.2 194.328L80 188.453V187.035L72.8 194.328H74.2ZM69.8 182.172L70 182.375L70.2 182.172H69.8ZM65.8 182.172L70 186.427L74.2 182.172H72.8L70 185.009L67.2 182.172H65.8Z" fill="#EDEDED"/>
<path fill-rule="evenodd" clip-rule="evenodd" d="M69.8 206.483L60 196.556V195.138L70 205.267L80 195.138V196.556L70.2 206.483H69.8ZM65.8 206.483L60 200.608V199.19L67.2 206.483H65.8ZM74.2 206.483L80 200.608V199.19L72.8 206.483H74.2ZM69.8 194.328L70 194.53L70.2 194.328H69.8ZM65.8 194.328L70 198.582L74.2 194.328H72.8L70 197.164L67.2 194.328H65.8Z" fill="#EDEDED"/>
<path fill-rule="evenodd" clip-rule="evenodd" d="M9.8 218.638L0 208.711V207.293L10 217.422L20 207.293V208.711L10.2 218.638H9.8ZM5.8 218.638L0 212.763V211.345L7.2 218.638H5.8ZM14.2 218.638L20 212.763V211.345L12.8 218.638H14.2ZM9.8 206.483L10 206.685L10.2 206.483H9.8ZM5.8 206.483L10 210.737L14.2 206.483H12.8L10 209.319L7.2 206.483H5.8Z" fill="#EDEDED"/>
<path fill-rule="evenodd" clip-rule="evenodd" d="M9.8 230.793L0 220.866V219.448L10 229.578L20 219.448V220.866L10.2 230.793H9.8ZM5.8 230.793L0 224.918V223.5L7.2 230.793H5.8ZM14.2 230.793L20 224.918V223.5L12.8 230.793H14.2ZM9.8 218.638L10 218.841L10.2 218.638H9.8ZM5.8 218.638L10 222.892L14.2 218.638H12.8L10 221.474L7.2 218.638H5.8Z" fill="#EDEDED"/>
<path fill-rule="evenodd" clip-rule="evenodd" d="M29.8 218.638L20 208.711V207.293L30 217.422L40 207.293V208.711L30.2 218.638H29.8ZM25.8 218.638L20 212.763V211.345L27.2 218.638H25.8ZM34.2 218.638L40 212.763V211.345L32.8 218.638H34.2ZM29.8 206.483L30 206.685L30.2 206.483H29.8ZM25.8 206.483L30 210.737L34.2 206.483H32.8L30 209.319L27.2 206.483H25.8Z" fill="#EDEDED"/>
<path fill-rule="evenodd" clip-rule="evenodd" d="M29.8 230.793L20 220.866V219.448L30 229.578L40 219.448V220.866L30.2 230.793H29.8ZM25.8 230.793L20 224.918V223.5L27.2 230.793H25.8ZM34.2 230.793L40 224.918V223.5L32.8 230.793H34.2ZM29.8 218.638L30 218.841L30.2 218.638H29.8ZM25.8 218.638L30 222.892L34.2 218.638H32.8L30 221.474L27.2 218.638H25.8Z" fill="#EDEDED"/>
<path fill-rule="evenodd" clip-rule="evenodd" d="M49.8 218.638L40 208.711V207.293L50 217.422L60 207.293V208.711L50.2 218.638H49.8ZM45.8 218.638L40 212.763V211.345L47.2 218.638H45.8ZM54.2 218.638L60 212.763V211.345L52.8 218.638H54.2ZM49.8 206.483L50 206.685L50.2 206.483H49.8ZM45.8 206.483L50 210.737L54.2 206.483H52.8L50 209.319L47.2 206.483H45.8Z" fill="#EDEDED"/>
<path fill-rule="evenodd" clip-rule="evenodd" d="M49.8 230.793L40 220.866V219.448L50 229.578L60 219.448V220.866L50.2 230.793H49.8ZM45.8 230.793L40 224.918V223.5L47.2 230.793H45.8ZM54.2 230.793L60 224.918V223.5L52.8 230.793H54.2ZM49.8 218.638L50 218.841L50.2 218.638H49.8ZM45.8 218.638L50 222.892L54.2 218.638H52.8L50 221.474L47.2 218.638H45.8Z" fill="#EDEDED"/>
<path fill-rule="evenodd" clip-rule="evenodd" d="M69.8 218.638L60 208.711V207.293L70 217.422L80 207.293V208.711L70.2 218.638H69.8ZM65.8 218.638L60 212.763V211.345L67.2 218.638H65.8ZM74.2 218.638L80 212.763V211.345L72.8 218.638H74.2ZM69.8 206.483L70 206.685L70.2 206.483H69.8ZM65.8 206.483L70 210.737L74.2 206.483H72.8L70 209.319L67.2 206.483H65.8Z" fill="#EDEDED"/>
<path fill-rule="evenodd" clip-rule="evenodd" d="M69.8 230.793L60 220.866V219.448L70 229.578L80 219.448V220.866L70.2 230.793H69.8ZM65.8 230.793L60 224.918V223.5L67.2 230.793H65.8ZM74.2 230.793L80 224.918V223.5L72.8 230.793H74.2ZM69.8 218.638L70 218.841L70.2 218.638H69.8ZM65.8 218.638L70 222.892L74.2 218.638H72.8L70 221.474L67.2 218.638H65.8Z" fill="#EDEDED"/>
<path fill-rule="evenodd" clip-rule="evenodd" d="M9.8 242.948L0 233.022V231.604L10 241.733L20 231.604V233.022L10.2 242.948H9.8ZM5.8 242.948L0 237.073V235.655L7.2 242.948H5.8ZM14.2 242.948L20 237.073V235.655L12.8 242.948H14.2ZM9.8 230.793L10 230.996L10.2 230.793H9.8ZM5.8 230.793L10 235.047L14.2 230.793H12.8L10 233.629L7.2 230.793H5.8Z" fill="#EDEDED"/>
<path fill-rule="evenodd" clip-rule="evenodd" d="M9.8 255.104L0 245.177V243.759L10 253.888L20 243.759V245.177L10.2 255.104H9.8ZM5.8 255.104L0 249.229V247.81L7.2 255.104H5.8ZM14.2 255.104L20 249.229V247.81L12.8 255.104H14.2ZM9.8 242.948L10 243.151L10.2 242.948H9.8ZM5.8 242.948L10 247.203L14.2 242.948H12.8L10 245.785L7.2 242.948H5.8Z" fill="#EDEDED"/>
<path fill-rule="evenodd" clip-rule="evenodd" d="M29.8 242.948L20 233.022V231.604L30 241.733L40 231.604V233.022L30.2 242.948H29.8ZM25.8 242.948L20 237.073V235.655L27.2 242.948H25.8ZM34.2 242.948L40 237.073V235.655L32.8 242.948H34.2ZM29.8 230.793L30 230.996L30.2 230.793H29.8ZM25.8 230.793L30 235.047L34.2 230.793H32.8L30 233.629L27.2 230.793H25.8Z" fill="#EDEDED"/>
<path fill-rule="evenodd" clip-rule="evenodd" d="M29.8 255.104L20 245.177V243.759L30 253.888L40 243.759V245.177L30.2 255.104H29.8ZM25.8 255.104L20 249.229V247.81L27.2 255.104H25.8ZM34.2 255.104L40 249.229V247.81L32.8 255.104H34.2ZM29.8 242.948L30 243.151L30.2 242.948H29.8ZM25.8 242.948L30 247.203L34.2 242.948H32.8L30 245.785L27.2 242.948H25.8Z" fill="#EDEDED"/>
<path fill-rule="evenodd" clip-rule="evenodd" d="M49.8 242.948L40 233.022V231.604L50 241.733L60 231.604V233.022L50.2 242.948H49.8ZM45.8 242.948L40 237.073V235.655L47.2 242.948H45.8ZM54.2 242.948L60 237.073V235.655L52.8 242.948H54.2ZM49.8 230.793L50 230.996L50.2 230.793H49.8ZM45.8 230.793L50 235.047L54.2 230.793H52.8L50 233.629L47.2 230.793H45.8Z" fill="#EDEDED"/>
<path fill-rule="evenodd" clip-rule="evenodd" d="M49.8 255.104L40 245.177V243.759L50 253.888L60 243.759V245.177L50.2 255.104H49.8ZM45.8 255.104L40 249.229V247.81L47.2 255.104H45.8ZM54.2 255.104L60 249.229V247.81L52.8 255.104H54.2ZM49.8 242.948L50 243.151L50.2 242.948H49.8ZM45.8 242.948L50 247.203L54.2 242.948H52.8L50 245.785L47.2 242.948H45.8Z" fill="#EDEDED"/>
<path fill-rule="evenodd" clip-rule="evenodd" d="M69.8 242.948L60 233.022V231.604L70 241.733L80 231.604V233.022L70.2 242.948H69.8ZM65.8 242.948L60 237.073V235.655L67.2 242.948H65.8ZM74.2 242.948L80 237.073V235.655L72.8 242.948H74.2ZM69.8 230.793L70 230.996L70.2 230.793H69.8ZM65.8 230.793L70 235.047L74.2 230.793H72.8L70 233.629L67.2 230.793H65.8Z" fill="#EDEDED"/>
<path fill-rule="evenodd" clip-rule="evenodd" d="M69.8 255.104L60 245.177V243.759L70 253.888L80 243.759V245.177L70.2 255.104H69.8ZM65.8 255.104L60 249.229V247.81L67.2 255.104H65.8ZM74.2 255.104L80 249.229V247.81L72.8 255.104H74.2ZM69.8 242.948L70 243.151L70.2 242.948H69.8ZM65.8 242.948L70 247.203L74.2 242.948H72.8L70 245.785L67.2 242.948H65.8Z" fill="#EDEDED"/>
<path fill-rule="evenodd" clip-rule="evenodd" d="M9.8 267.259L0 257.332V255.914L10 266.043L20 255.914V257.332L10.2 267.259H9.8ZM5.8 267.259L0 261.384V259.966L7.2 267.259H5.8ZM14.2 267.259L20 261.384V259.966L12.8 267.259H14.2ZM9.8 255.104L10 255.306L10.2 255.104H9.8ZM5.8 255.104L10 259.358L14.2 255.104H12.8L10 257.94L7.2 255.104H5.8Z" fill="#EDEDED"/>
<path fill-rule="evenodd" clip-rule="evenodd" d="M9.8 279.414L0 269.487V268.069L10 278.198L20 268.069V269.487L10.2 279.414H9.8ZM5.8 279.414L0 273.539V272.121L7.2 279.414H5.8ZM14.2 279.414L20 273.539V272.121L12.8 279.414H14.2ZM9.8 267.259L10 267.461L10.2 267.259H9.8ZM5.8 267.259L10 271.513L14.2 267.259H12.8L10 270.095L7.2 267.259H5.8Z" fill="#EDEDED"/>
<path fill-rule="evenodd" clip-rule="evenodd" d="M29.8 267.259L20 257.332V255.914L30 266.043L40 255.914V257.332L30.2 267.259H29.8ZM25.8 267.259L20 261.384V259.966L27.2 267.259H25.8ZM34.2 267.259L40 261.384V259.966L32.8 267.259H34.2ZM29.8 255.104L30 255.306L30.2 255.104H29.8ZM25.8 255.104L30 259.358L34.2 255.104H32.8L30 257.94L27.2 255.104H25.8Z" fill="#EDEDED"/>
<path fill-rule="evenodd" clip-rule="evenodd" d="M29.8 279.414L20 269.487V268.069L30 278.198L40 268.069V269.487L30.2 279.414H29.8ZM25.8 279.414L20 273.539V272.121L27.2 279.414H25.8ZM34.2 279.414L40 273.539V272.121L32.8 279.414H34.2ZM29.8 267.259L30 267.461L30.2 267.259H29.8ZM25.8 267.259L30 271.513L34.2 267.259H32.8L30 270.095L27.2 267.259H25.8Z" fill="#EDEDED"/>
<path fill-rule="evenodd" clip-rule="evenodd" d="M49.8 267.259L40 257.332V255.914L50 266.043L60 255.914V257.332L50.2 267.259H49.8ZM45.8 267.259L40 261.384V259.966L47.2 267.259H45.8ZM54.2 267.259L60 261.384V259.966L52.8 267.259H54.2ZM49.8 255.104L50 255.306L50.2 255.104H49.8ZM45.8 255.104L50 259.358L54.2 255.104H52.8L50 257.94L47.2 255.104H45.8Z" fill="#EDEDED"/>
<path fill-rule="evenodd" clip-rule="evenodd" d="M49.8 279.414L40 269.487V268.069L50 278.198L60 268.069V269.487L50.2 279.414H49.8ZM45.8 279.414L40 273.539V272.121L47.2 279.414H45.8ZM54.2 279.414L60 273.539V272.121L52.8 279.414H54.2ZM49.8 267.259L50 267.461L50.2 267.259H49.8ZM45.8 267.259L50 271.513L54.2 267.259H52.8L50 270.095L47.2 267.259H45.8Z" fill="#EDEDED"/>
<path fill-rule="evenodd" clip-rule="evenodd" d="M69.8 267.259L60 257.332V255.914L70 266.043L80 255.914V257.332L70.2 267.259H69.8ZM65.8 267.259L60 261.384V259.966L67.2 267.259H65.8ZM74.2 267.259L80 261.384V259.966L72.8 267.259H74.2ZM69.8 255.104L70 255.306L70.2 255.104H69.8ZM65.8 255.104L70 259.358L74.2 255.104H72.8L70 257.94L67.2 255.104H65.8Z" fill="#EDEDED"/>
<path fill-rule="evenodd" clip-rule="evenodd" d="M69.8 279.414L60 269.487V268.069L70 278.198L80 268.069V269.487L70.2 279.414H69.8ZM65.8 279.414L60 273.539V272.121L67.2 279.414H65.8ZM74.2 279.414L80 273.539V272.121L72.8 279.414H74.2ZM69.8 267.259L70 267.461L70.2 267.259H69.8ZM65.8 267.259L70 271.513L74.2 267.259H72.8L70 270.095L67.2 267.259H65.8Z" fill="#EDEDED"/>
<path fill-rule="evenodd" clip-rule="evenodd" d="M9.8 291.569L0 281.642V280.224L10 290.354L20 280.224V281.642L10.2 291.569H9.8ZM5.8 291.569L0 285.694V284.276L7.2 291.569H5.8ZM14.2 291.569L20 285.694V284.276L12.8 291.569H14.2ZM9.8 279.414L10 279.616L10.2 279.414H9.8ZM5.8 279.414L10 283.668L14.2 279.414H12.8L10 282.25L7.2 279.414H5.8Z" fill="#EDEDED"/>
<path fill-rule="evenodd" clip-rule="evenodd" d="M9.8 303.724L0 293.797V292.379L10 302.509L20 292.379V293.797L10.2 303.724H9.8ZM5.8 303.724L0 297.849V296.431L7.2 303.724H5.8ZM14.2 303.724L20 297.849V296.431L12.8 303.724H14.2ZM9.8 291.569L10 291.772L10.2 291.569H9.8ZM5.8 291.569L10 295.823L14.2 291.569H12.8L10 294.405L7.2 291.569H5.8Z" fill="#EDEDED"/>
<path fill-rule="evenodd" clip-rule="evenodd" d="M29.8 291.569L20 281.642V280.224L30 290.354L40 280.224V281.642L30.2 291.569H29.8ZM25.8 291.569L20 285.694V284.276L27.2 291.569H25.8ZM34.2 291.569L40 285.694V284.276L32.8 291.569H34.2ZM29.8 279.414L30 279.616L30.2 279.414H29.8ZM25.8 279.414L30 283.668L34.2 279.414H32.8L30 282.25L27.2 279.414H25.8Z" fill="#EDEDED"/>
<path fill-rule="evenodd" clip-rule="evenodd" d="M29.8 303.724L20 293.797V292.379L30 302.509L40 292.379V293.797L30.2 303.724H29.8ZM25.8 303.724L20 297.849V296.431L27.2 303.724H25.8ZM34.2 303.724L40 297.849V296.431L32.8 303.724H34.2ZM29.8 291.569L30 291.772L30.2 291.569H29.8ZM25.8 291.569L30 295.823L34.2 291.569H32.8L30 294.405L27.2 291.569H25.8Z" fill="#EDEDED"/>
<path fill-rule="evenodd" clip-rule="evenodd" d="M49.8 291.569L40 281.642V280.224L50 290.354L60 280.224V281.642L50.2 291.569H49.8ZM45.8 291.569L40 285.694V284.276L47.2 291.569H45.8ZM54.2 291.569L60 285.694V284.276L52.8 291.569H54.2ZM49.8 279.414L50 279.616L50.2 279.414H49.8ZM45.8 279.414L50 283.668L54.2 279.414H52.8L50 282.25L47.2 279.414H45.8Z" fill="#EDEDED"/>
<path fill-rule="evenodd" clip-rule="evenodd" d="M49.8 303.724L40 293.797V292.379L50 302.509L60 292.379V293.797L50.2 303.724H49.8ZM45.8 303.724L40 297.849V296.431L47.2 303.724H45.8ZM54.2 303.724L60 297.849V296.431L52.8 303.724H54.2ZM49.8 291.569L50 291.772L50.2 291.569H49.8ZM45.8 291.569L50 295.823L54.2 291.569H52.8L50 294.405L47.2 291.569H45.8Z" fill="#EDEDED"/>
<path fill-rule="evenodd" clip-rule="evenodd" d="M69.8 291.569L60 281.642V280.224L70 290.354L80 280.224V281.642L70.2 291.569H69.8ZM65.8 291.569L60 285.694V284.276L67.2 291.569H65.8ZM74.2 291.569L80 285.694V284.276L72.8 291.569H74.2ZM69.8 279.414L70 279.616L70.2 279.414H69.8ZM65.8 279.414L70 283.668L74.2 279.414H72.8L70 282.25L67.2 279.414H65.8Z" fill="#EDEDED"/>
<path fill-rule="evenodd" clip-rule="evenodd" d="M69.8 303.724L60 293.797V292.379L70 302.509L80 292.379V293.797L70.2 303.724H69.8ZM65.8 303.724L60 297.849V296.431L67.2 303.724H65.8ZM74.2 303.724L80 297.849V296.431L72.8 303.724H74.2ZM69.8 291.569L70 291.772L70.2 291.569H69.8ZM65.8 291.569L70 295.823L74.2 291.569H72.8L70 294.405L67.2 291.569H65.8Z" fill="#EDEDED"/>
<path fill-rule="evenodd" clip-rule="evenodd" d="M9.8 315.879L0 305.953V304.535L10 314.664L20 304.535V305.953L10.2 315.879H9.8ZM5.8 315.879L0 310.004V308.586L7.2 315.879H5.8ZM14.2 315.879L20 310.004V308.586L12.8 315.879H14.2ZM9.8 303.724L10 303.927L10.2 303.724H9.8ZM5.8 303.724L10 307.979L14.2 303.724H12.8L10 306.56L7.2 303.724H5.8Z" fill="#EDEDED"/>
<path fill-rule="evenodd" clip-rule="evenodd" d="M9.8 328.035L0 318.108V316.69L10 326.819L20 316.69V318.108L10.2 328.035H9.8ZM5.8 328.035L0 322.16V320.741L7.2 328.035H5.8ZM14.2 328.035L20 322.16V320.741L12.8 328.035H14.2ZM9.8 315.879L10 316.082L10.2 315.879H9.8ZM5.8 315.879L10 320.134L14.2 315.879H12.8L10 318.716L7.2 315.879H5.8Z" fill="#EDEDED"/>
<path fill-rule="evenodd" clip-rule="evenodd" d="M29.8 315.879L20 305.953V304.535L30 314.664L40 304.535V305.953L30.2 315.879H29.8ZM25.8 315.879L20 310.004V308.586L27.2 315.879H25.8ZM34.2 315.879L40 310.004V308.586L32.8 315.879H34.2ZM29.8 303.724L30 303.927L30.2 303.724H29.8ZM25.8 303.724L30 307.979L34.2 303.724H32.8L30 306.56L27.2 303.724H25.8Z" fill="#EDEDED"/>
<path fill-rule="evenodd" clip-rule="evenodd" d="M29.8 328.035L20 318.108V316.69L30 326.819L40 316.69V318.108L30.2 328.035H29.8ZM25.8 328.035L20 322.16V320.741L27.2 328.035H25.8ZM34.2 328.035L40 322.16V320.741L32.8 328.035H34.2ZM29.8 315.879L30 316.082L30.2 315.879H29.8ZM25.8 315.879L30 320.134L34.2 315.879H32.8L30 318.716L27.2 315.879H25.8Z" fill="#EDEDED"/>
<path fill-rule="evenodd" clip-rule="evenodd" d="M49.8 315.879L40 305.953V304.535L50 314.664L60 304.535V305.953L50.2 315.879H49.8ZM45.8 315.879L40 310.004V308.586L47.2 315.879H45.8ZM54.2 315.879L60 310.004V308.586L52.8 315.879H54.2ZM49.8 303.724L50 303.927L50.2 303.724H49.8ZM45.8 303.724L50 307.979L54.2 303.724H52.8L50 306.56L47.2 303.724H45.8Z" fill="#EDEDED"/>
<path fill-rule="evenodd" clip-rule="evenodd" d="M49.8 328.035L40 318.108V316.69L50 326.819L60 316.69V318.108L50.2 328.035H49.8ZM45.8 328.035L40 322.16V320.741L47.2 328.035H45.8ZM54.2 328.035L60 322.16V320.741L52.8 328.035H54.2ZM49.8 315.879L50 316.082L50.2 315.879H49.8ZM45.8 315.879L50 320.134L54.2 315.879H52.8L50 318.716L47.2 315.879H45.8Z" fill="#EDEDED"/>
<path fill-rule="evenodd" clip-rule="evenodd" d="M69.8 315.879L60 305.953V304.535L70 314.664L80 304.535V305.953L70.2 315.879H69.8ZM65.8 315.879L60 310.004V308.586L67.2 315.879H65.8ZM74.2 315.879L80 310.004V308.586L72.8 315.879H74.2ZM69.8 303.724L70 303.927L70.2 303.724H69.8ZM65.8 303.724L70 307.979L74.2 303.724H72.8L70 306.56L67.2 303.724H65.8Z" fill="#EDEDED"/>
<path fill-rule="evenodd" clip-rule="evenodd" d="M69.8 328.035L60 318.108V316.69L70 326.819L80 316.69V318.108L70.2 328.035H69.8ZM65.8 328.035L60 322.16V320.741L67.2 328.035H65.8ZM74.2 328.035L80 322.16V320.741L72.8 328.035H74.2ZM69.8 315.879L70 316.082L70.2 315.879H69.8ZM65.8 315.879L70 320.134L74.2 315.879H72.8L70 318.716L67.2 315.879H65.8Z" fill="#EDEDED"/>
<path fill-rule="evenodd" clip-rule="evenodd" d="M9.8 340.19L0 330.263V328.845L10 338.974L20 328.845V330.263L10.2 340.19H9.8ZM5.8 340.19L0 334.315V332.897L7.2 340.19H5.8ZM14.2 340.19L20 334.315V332.897L12.8 340.19H14.2ZM9.8 328.035L10 328.237L10.2 328.035H9.8ZM5.8 328.035L10 332.289L14.2 328.035H12.8L10 330.871L7.2 328.035H5.8Z" fill="#EDEDED"/>
<path fill-rule="evenodd" clip-rule="evenodd" d="M9.8 352.345L0 342.418V341L10 351.129L20 341V342.418L10.2 352.345H9.8ZM5.8 352.345L0 346.47V345.052L7.2 352.345H5.8ZM14.2 352.345L20 346.47V345.052L12.8 352.345H14.2ZM9.8 340.19L10 340.392L10.2 340.19H9.8ZM5.8 340.19L10 344.444L14.2 340.19H12.8L10 343.026L7.2 340.19H5.8Z" fill="#EDEDED"/>
<path fill-rule="evenodd" clip-rule="evenodd" d="M29.8 340.19L20 330.263V328.845L30 338.974L40 328.845V330.263L30.2 340.19H29.8ZM25.8 340.19L20 334.315V332.897L27.2 340.19H25.8ZM34.2 340.19L40 334.315V332.897L32.8 340.19H34.2ZM29.8 328.035L30 328.237L30.2 328.035H29.8ZM25.8 328.035L30 332.289L34.2 328.035H32.8L30 330.871L27.2 328.035H25.8Z" fill="#EDEDED"/>
<path fill-rule="evenodd" clip-rule="evenodd" d="M29.8 352.345L20 342.418V341L30 351.129L40 341V342.418L30.2 352.345H29.8ZM25.8 352.345L20 346.47V345.052L27.2 352.345H25.8ZM34.2 352.345L40 346.47V345.052L32.8 352.345H34.2ZM29.8 340.19L30 340.392L30.2 340.19H29.8ZM25.8 340.19L30 344.444L34.2 340.19H32.8L30 343.026L27.2 340.19H25.8Z" fill="#EDEDED"/>
<path fill-rule="evenodd" clip-rule="evenodd" d="M49.8 340.19L40 330.263V328.845L50 338.974L60 328.845V330.263L50.2 340.19H49.8ZM45.8 340.19L40 334.315V332.897L47.2 340.19H45.8ZM54.2 340.19L60 334.315V332.897L52.8 340.19H54.2ZM49.8 328.035L50 328.237L50.2 328.035H49.8ZM45.8 328.035L50 332.289L54.2 328.035H52.8L50 330.871L47.2 328.035H45.8Z" fill="#EDEDED"/>
<path fill-rule="evenodd" clip-rule="evenodd" d="M49.8 352.345L40 342.418V341L50 351.129L60 341V342.418L50.2 352.345H49.8ZM45.8 352.345L40 346.47V345.052L47.2 352.345H45.8ZM54.2 352.345L60 346.47V345.052L52.8 352.345H54.2ZM49.8 340.19L50 340.392L50.2 340.19H49.8ZM45.8 340.19L50 344.444L54.2 340.19H52.8L50 343.026L47.2 340.19H45.8Z" fill="#EDEDED"/>
<path fill-rule="evenodd" clip-rule="evenodd" d="M69.8 340.19L60 330.263V328.845L70 338.974L80 328.845V330.263L70.2 340.19H69.8ZM65.8 340.19L60 334.315V332.897L67.2 340.19H65.8ZM74.2 340.19L80 334.315V332.897L72.8 340.19H74.2ZM69.8 328.035L70 328.237L70.2 328.035H69.8ZM65.8 328.035L70 332.289L74.2 328.035H72.8L70 330.871L67.2 328.035H65.8Z" fill="#EDEDED"/>
<path fill-rule="evenodd" clip-rule="evenodd" d="M69.8 352.345L60 342.418V341L70 351.129L80 341V342.418L70.2 352.345H69.8ZM65.8 352.345L60 346.47V345.052L67.2 352.345H65.8ZM74.2 352.345L80 346.47V345.052L72.8 352.345H74.2ZM69.8 340.19L70 340.392L70.2 340.19H69.8ZM65.8 340.19L70 344.444L74.2 340.19H72.8L70 343.026L67.2 340.19H65.8Z" fill="#EDEDED"/>
<path fill-rule="evenodd" clip-rule="evenodd" d="M9.8 364.5L0 354.573V353.155L10 363.285L20 353.155V354.573L10.2 364.5H9.8ZM5.8 364.5L0 358.625V357.207L7.2 364.5H5.8ZM14.2 364.5L20 358.625V357.207L12.8 364.5H14.2ZM9.8 352.345L10 352.547L10.2 352.345H9.8ZM5.8 352.345L10 356.599L14.2 352.345H12.8L10 355.181L7.2 352.345H5.8Z" fill="#EDEDED"/>
<path fill-rule="evenodd" clip-rule="evenodd" d="M9.8 376.655L0 366.729V365.31L10 375.44L20 365.31V366.729L10.2 376.655H9.8ZM5.8 376.655L0 370.78V369.362L7.2 376.655H5.8ZM14.2 376.655L20 370.78V369.362L12.8 376.655H14.2ZM9.8 364.5L10 364.703L10.2 364.5H9.8ZM5.8 364.5L10 368.754L14.2 364.5H12.8L10 367.336L7.2 364.5H5.8Z" fill="#EDEDED"/>
<path fill-rule="evenodd" clip-rule="evenodd" d="M29.8 364.5L20 354.573V353.155L30 363.285L40 353.155V354.573L30.2 364.5H29.8ZM25.8 364.5L20 358.625V357.207L27.2 364.5H25.8ZM34.2 364.5L40 358.625V357.207L32.8 364.5H34.2ZM29.8 352.345L30 352.547L30.2 352.345H29.8ZM25.8 352.345L30 356.599L34.2 352.345H32.8L30 355.181L27.2 352.345H25.8Z" fill="#EDEDED"/>
<path fill-rule="evenodd" clip-rule="evenodd" d="M29.8 376.655L20 366.729V365.31L30 375.44L40 365.31V366.729L30.2 376.655H29.8ZM25.8 376.655L20 370.78V369.362L27.2 376.655H25.8ZM34.2 376.655L40 370.78V369.362L32.8 376.655H34.2ZM29.8 364.5L30 364.703L30.2 364.5H29.8ZM25.8 364.5L30 368.754L34.2 364.5H32.8L30 367.336L27.2 364.5H25.8Z" fill="#EDEDED"/>
<path fill-rule="evenodd" clip-rule="evenodd" d="M49.8 364.5L40 354.573V353.155L50 363.285L60 353.155V354.573L50.2 364.5H49.8ZM45.8 364.5L40 358.625V357.207L47.2 364.5H45.8ZM54.2 364.5L60 358.625V357.207L52.8 364.5H54.2ZM49.8 352.345L50 352.547L50.2 352.345H49.8ZM45.8 352.345L50 356.599L54.2 352.345H52.8L50 355.181L47.2 352.345H45.8Z" fill="#EDEDED"/>
<path fill-rule="evenodd" clip-rule="evenodd" d="M49.8 376.655L40 366.729V365.31L50 375.44L60 365.31V366.729L50.2 376.655H49.8ZM45.8 376.655L40 370.78V369.362L47.2 376.655H45.8ZM54.2 376.655L60 370.78V369.362L52.8 376.655H54.2ZM49.8 364.5L50 364.703L50.2 364.5H49.8ZM45.8 364.5L50 368.754L54.2 364.5H52.8L50 367.336L47.2 364.5H45.8Z" fill="#EDEDED"/>
<path fill-rule="evenodd" clip-rule="evenodd" d="M69.8 364.5L60 354.573V353.155L70 363.285L80 353.155V354.573L70.2 364.5H69.8ZM65.8 364.5L60 358.625V357.207L67.2 364.5H65.8ZM74.2 364.5L80 358.625V357.207L72.8 364.5H74.2ZM69.8 352.345L70 352.547L70.2 352.345H69.8ZM65.8 352.345L70 356.599L74.2 352.345H72.8L70 355.181L67.2 352.345H65.8Z" fill="#EDEDED"/>
<path fill-rule="evenodd" clip-rule="evenodd" d="M69.8 376.655L60 366.729V365.31L70 375.44L80 365.31V366.729L70.2 376.655H69.8ZM65.8 376.655L60 370.78V369.362L67.2 376.655H65.8ZM74.2 376.655L80 370.78V369.362L72.8 376.655H74.2ZM69.8 364.5L70 364.703L70.2 364.5H69.8ZM65.8 364.5L70 368.754L74.2 364.5H72.8L70 367.336L67.2 364.5H65.8Z" fill="#EDEDED"/>
<path fill-rule="evenodd" clip-rule="evenodd" d="M9.8 388.81L0 378.884V377.466L10 387.595L20 377.466V378.884L10.2 388.81H9.8ZM5.8 388.81L0 382.935V381.517L7.2 388.81H5.8ZM14.2 388.81L20 382.935V381.517L12.8 388.81H14.2ZM9.8 376.655L10 376.858L10.2 376.655H9.8ZM5.8 376.655L10 380.91L14.2 376.655H12.8L10 379.491L7.2 376.655H5.8Z" fill="#EDEDED"/>
<path fill-rule="evenodd" clip-rule="evenodd" d="M9.8 400.966L0 391.039V389.621L10 399.75L20 389.621V391.039L10.2 400.966H9.8ZM5.8 400.966L0 395.091V393.672L7.2 400.966H5.8ZM14.2 400.966L20 395.091V393.672L12.8 400.966H14.2ZM9.8 388.81L10 389.013L10.2 388.81H9.8ZM5.8 388.81L10 393.065L14.2 388.81H12.8L10 391.647L7.2 388.81H5.8Z" fill="#EDEDED"/>
<path fill-rule="evenodd" clip-rule="evenodd" d="M29.8 388.81L20 378.884V377.466L30 387.595L40 377.466V378.884L30.2 388.81H29.8ZM25.8 388.81L20 382.935V381.517L27.2 388.81H25.8ZM34.2 388.81L40 382.935V381.517L32.8 388.81H34.2ZM29.8 376.655L30 376.858L30.2 376.655H29.8ZM25.8 376.655L30 380.91L34.2 376.655H32.8L30 379.491L27.2 376.655H25.8Z" fill="#EDEDED"/>
<path fill-rule="evenodd" clip-rule="evenodd" d="M29.8 400.966L20 391.039V389.621L30 399.75L40 389.621V391.039L30.2 400.966H29.8ZM25.8 400.966L20 395.091V393.672L27.2 400.966H25.8ZM34.2 400.966L40 395.091V393.672L32.8 400.966H34.2ZM29.8 388.81L30 389.013L30.2 388.81H29.8ZM25.8 388.81L30 393.065L34.2 388.81H32.8L30 391.647L27.2 388.81H25.8Z" fill="#EDEDED"/>
<path fill-rule="evenodd" clip-rule="evenodd" d="M49.8 388.81L40 378.884V377.466L50 387.595L60 377.466V378.884L50.2 388.81H49.8ZM45.8 388.81L40 382.935V381.517L47.2 388.81H45.8ZM54.2 388.81L60 382.935V381.517L52.8 388.81H54.2ZM49.8 376.655L50 376.858L50.2 376.655H49.8ZM45.8 376.655L50 380.91L54.2 376.655H52.8L50 379.491L47.2 376.655H45.8Z" fill="#EDEDED"/>
<path fill-rule="evenodd" clip-rule="evenodd" d="M49.8 400.966L40 391.039V389.621L50 399.75L60 389.621V391.039L50.2 400.966H49.8ZM45.8 400.966L40 395.091V393.672L47.2 400.966H45.8ZM54.2 400.966L60 395.091V393.672L52.8 400.966H54.2ZM49.8 388.81L50 389.013L50.2 388.81H49.8ZM45.8 388.81L50 393.065L54.2 388.81H52.8L50 391.647L47.2 388.81H45.8Z" fill="#EDEDED"/>
<path fill-rule="evenodd" clip-rule="evenodd" d="M69.8 388.81L60 378.884V377.466L70 387.595L80 377.466V378.884L70.2 388.81H69.8ZM65.8 388.81L60 382.935V381.517L67.2 388.81H65.8ZM74.2 388.81L80 382.935V381.517L72.8 388.81H74.2ZM69.8 376.655L70 376.858L70.2 376.655H69.8ZM65.8 376.655L70 380.91L74.2 376.655H72.8L70 379.491L67.2 376.655H65.8Z" fill="#EDEDED"/>
<path fill-rule="evenodd" clip-rule="evenodd" d="M69.8 400.966L60 391.039V389.621L70 399.75L80 389.621V391.039L70.2 400.966H69.8ZM65.8 400.966L60 395.091V393.672L67.2 400.966H65.8ZM74.2 400.966L80 395.091V393.672L72.8 400.966H74.2ZM69.8 388.81L70 389.013L70.2 388.81H69.8ZM65.8 388.81L70 393.065L74.2 388.81H72.8L70 391.647L67.2 388.81H65.8Z" fill="#EDEDED"/>
<path fill-rule="evenodd" clip-rule="evenodd" d="M9.8 413.121L0 403.194V401.776L10 411.905L20 401.776V403.194L10.2 413.121H9.8ZM5.8 413.121L0 407.246V405.828L7.2 413.121H5.8ZM14.2 413.121L20 407.246V405.828L12.8 413.121H14.2ZM9.8 400.966L10 401.168L10.2 400.966H9.8ZM5.8 400.966L10 405.22L14.2 400.966H12.8L10 403.802L7.2 400.966H5.8Z" fill="#EDEDED"/>
<path fill-rule="evenodd" clip-rule="evenodd" d="M9.8 425.276L0 415.349V413.931L10 424.06L20 413.931V415.349L10.2 425.276H9.8ZM5.8 425.276L0 419.401V417.983L7.2 425.276H5.8ZM14.2 425.276L20 419.401V417.983L12.8 425.276H14.2ZM9.8 413.121L10 413.323L10.2 413.121H9.8ZM5.8 413.121L10 417.375L14.2 413.121H12.8L10 415.957L7.2 413.121H5.8Z" fill="#EDEDED"/>
<path fill-rule="evenodd" clip-rule="evenodd" d="M29.8 413.121L20 403.194V401.776L30 411.905L40 401.776V403.194L30.2 413.121H29.8ZM25.8 413.121L20 407.246V405.828L27.2 413.121H25.8ZM34.2 413.121L40 407.246V405.828L32.8 413.121H34.2ZM29.8 400.966L30 401.168L30.2 400.966H29.8ZM25.8 400.966L30 405.22L34.2 400.966H32.8L30 403.802L27.2 400.966H25.8Z" fill="#EDEDED"/>
<path fill-rule="evenodd" clip-rule="evenodd" d="M29.8 425.276L20 415.349V413.931L30 424.06L40 413.931V415.349L30.2 425.276H29.8ZM25.8 425.276L20 419.401V417.983L27.2 425.276H25.8ZM34.2 425.276L40 419.401V417.983L32.8 425.276H34.2ZM29.8 413.121L30 413.323L30.2 413.121H29.8ZM25.8 413.121L30 417.375L34.2 413.121H32.8L30 415.957L27.2 413.121H25.8Z" fill="#EDEDED"/>
<path fill-rule="evenodd" clip-rule="evenodd" d="M49.8 413.121L40 403.194V401.776L50 411.905L60 401.776V403.194L50.2 413.121H49.8ZM45.8 413.121L40 407.246V405.828L47.2 413.121H45.8ZM54.2 413.121L60 407.246V405.828L52.8 413.121H54.2ZM49.8 400.966L50 401.168L50.2 400.966H49.8ZM45.8 400.966L50 405.22L54.2 400.966H52.8L50 403.802L47.2 400.966H45.8Z" fill="#EDEDED"/>
<path fill-rule="evenodd" clip-rule="evenodd" d="M49.8 425.276L40 415.349V413.931L50 424.06L60 413.931V415.349L50.2 425.276H49.8ZM45.8 425.276L40 419.401V417.983L47.2 425.276H45.8ZM54.2 425.276L60 419.401V417.983L52.8 425.276H54.2ZM49.8 413.121L50 413.323L50.2 413.121H49.8ZM45.8 413.121L50 417.375L54.2 413.121H52.8L50 415.957L47.2 413.121H45.8Z" fill="#EDEDED"/>
<path fill-rule="evenodd" clip-rule="evenodd" d="M69.8 413.121L60 403.194V401.776L70 411.905L80 401.776V403.194L70.2 413.121H69.8ZM65.8 413.121L60 407.246V405.828L67.2 413.121H65.8ZM74.2 413.121L80 407.246V405.828L72.8 413.121H74.2ZM69.8 400.966L70 401.168L70.2 400.966H69.8ZM65.8 400.966L70 405.22L74.2 400.966H72.8L70 403.802L67.2 400.966H65.8Z" fill="#EDEDED"/>
<path fill-rule="evenodd" clip-rule="evenodd" d="M69.8 425.276L60 415.349V413.931L70 424.06L80 413.931V415.349L70.2 425.276H69.8ZM65.8 425.276L60 419.401V417.983L67.2 425.276H65.8ZM74.2 425.276L80 419.401V417.983L72.8 425.276H74.2ZM69.8 413.121L70 413.323L70.2 413.121H69.8ZM65.8 413.121L70 417.375L74.2 413.121H72.8L70 415.957L67.2 413.121H65.8Z" fill="#EDEDED"/>
<path fill-rule="evenodd" clip-rule="evenodd" d="M9.8 437.431L0 427.504V426.086L10 436.216L20 426.086V427.504L10.2 437.431H9.8ZM5.8 437.431L0 431.556V430.138L7.2 437.431H5.8ZM14.2 437.431L20 431.556V430.138L12.8 437.431H14.2ZM9.8 425.276L10 425.479L10.2 425.276H9.8ZM5.8 425.276L10 429.53L14.2 425.276H12.8L10 428.112L7.2 425.276H5.8Z" fill="#EDEDED"/>
<path fill-rule="evenodd" clip-rule="evenodd" d="M9.8 449.586L0 439.66V438.241L10 448.371L20 438.241V439.66L10.2 449.586H9.8ZM5.8 449.586L0 443.711V442.293L7.2 449.586H5.8ZM14.2 449.586L20 443.711V442.293L12.8 449.586H14.2ZM9.8 437.431L10 437.634L10.2 437.431H9.8ZM5.8 437.431L10 441.685L14.2 437.431H12.8L10 440.267L7.2 437.431H5.8Z" fill="#EDEDED"/>
<path fill-rule="evenodd" clip-rule="evenodd" d="M29.8 437.431L20 427.504V426.086L30 436.216L40 426.086V427.504L30.2 437.431H29.8ZM25.8 437.431L20 431.556V430.138L27.2 437.431H25.8ZM34.2 437.431L40 431.556V430.138L32.8 437.431H34.2ZM29.8 425.276L30 425.479L30.2 425.276H29.8ZM25.8 425.276L30 429.53L34.2 425.276H32.8L30 428.112L27.2 425.276H25.8Z" fill="#EDEDED"/>
<path fill-rule="evenodd" clip-rule="evenodd" d="M29.8 449.586L20 439.66V438.241L30 448.371L40 438.241V439.66L30.2 449.586H29.8ZM25.8 449.586L20 443.711V442.293L27.2 449.586H25.8ZM34.2 449.586L40 443.711V442.293L32.8 449.586H34.2ZM29.8 437.431L30 437.634L30.2 437.431H29.8ZM25.8 437.431L30 441.685L34.2 437.431H32.8L30 440.267L27.2 437.431H25.8Z" fill="#EDEDED"/>
<path fill-rule="evenodd" clip-rule="evenodd" d="M49.8 437.431L40 427.504V426.086L50 436.216L60 426.086V427.504L50.2 437.431H49.8ZM45.8 437.431L40 431.556V430.138L47.2 437.431H45.8ZM54.2 437.431L60 431.556V430.138L52.8 437.431H54.2ZM49.8 425.276L50 425.479L50.2 425.276H49.8ZM45.8 425.276L50 429.53L54.2 425.276H52.8L50 428.112L47.2 425.276H45.8Z" fill="#EDEDED"/>
<path fill-rule="evenodd" clip-rule="evenodd" d="M49.8 449.586L40 439.66V438.241L50 448.371L60 438.241V439.66L50.2 449.586H49.8ZM45.8 449.586L40 443.711V442.293L47.2 449.586H45.8ZM54.2 449.586L60 443.711V442.293L52.8 449.586H54.2ZM49.8 437.431L50 437.634L50.2 437.431H49.8ZM45.8 437.431L50 441.685L54.2 437.431H52.8L50 440.267L47.2 437.431H45.8Z" fill="#EDEDED"/>
<path fill-rule="evenodd" clip-rule="evenodd" d="M69.8 437.431L60 427.504V426.086L70 436.216L80 426.086V427.504L70.2 437.431H69.8ZM65.8 437.431L60 431.556V430.138L67.2 437.431H65.8ZM74.2 437.431L80 431.556V430.138L72.8 437.431H74.2ZM69.8 425.276L70 425.479L70.2 425.276H69.8ZM65.8 425.276L70 429.53L74.2 425.276H72.8L70 428.112L67.2 425.276H65.8Z" fill="#EDEDED"/>
<path fill-rule="evenodd" clip-rule="evenodd" d="M69.8 449.586L60 439.66V438.241L70 448.371L80 438.241V439.66L70.2 449.586H69.8ZM65.8 449.586L60 443.711V442.293L67.2 449.586H65.8ZM74.2 449.586L80 443.711V442.293L72.8 449.586H74.2ZM69.8 437.431L70 437.634L70.2 437.431H69.8ZM65.8 437.431L70 441.685L74.2 437.431H72.8L70 440.267L67.2 437.431H65.8Z" fill="#EDEDED"/>
<path fill-rule="evenodd" clip-rule="evenodd" d="M9.8 461.741L0 451.815V450.397L10 460.526L20 450.397V451.815L10.2 461.741H9.8ZM5.8 461.741L0 455.866V454.448L7.2 461.741H5.8ZM14.2 461.741L20 455.866V454.448L12.8 461.741H14.2ZM9.8 449.586L10 449.789L10.2 449.586H9.8ZM5.8 449.586L10 453.841L14.2 449.586H12.8L10 452.422L7.2 449.586H5.8Z" fill="#EDEDED"/>
<path fill-rule="evenodd" clip-rule="evenodd" d="M9.8 473.897L0 463.97V462.552L10 472.681L20 462.552V463.97L10.2 473.897H9.8ZM5.8 473.897L0 468.022V466.604L7.2 473.897H5.8ZM14.2 473.897L20 468.022V466.604L12.8 473.897H14.2ZM9.8 461.741L10 461.944L10.2 461.741H9.8ZM5.8 461.741L10 465.996L14.2 461.741H12.8L10 464.578L7.2 461.741H5.8Z" fill="#EDEDED"/>
<path fill-rule="evenodd" clip-rule="evenodd" d="M29.8 461.741L20 451.815V450.397L30 460.526L40 450.397V451.815L30.2 461.741H29.8ZM25.8 461.741L20 455.866V454.448L27.2 461.741H25.8ZM34.2 461.741L40 455.866V454.448L32.8 461.741H34.2ZM29.8 449.586L30 449.789L30.2 449.586H29.8ZM25.8 449.586L30 453.841L34.2 449.586H32.8L30 452.422L27.2 449.586H25.8Z" fill="#EDEDED"/>
<path fill-rule="evenodd" clip-rule="evenodd" d="M29.8 473.897L20 463.97V462.552L30 472.681L40 462.552V463.97L30.2 473.897H29.8ZM25.8 473.897L20 468.022V466.604L27.2 473.897H25.8ZM34.2 473.897L40 468.022V466.604L32.8 473.897H34.2ZM29.8 461.741L30 461.944L30.2 461.741H29.8ZM25.8 461.741L30 465.996L34.2 461.741H32.8L30 464.578L27.2 461.741H25.8Z" fill="#EDEDED"/>
<path fill-rule="evenodd" clip-rule="evenodd" d="M49.8 461.741L40 451.815V450.397L50 460.526L60 450.397V451.815L50.2 461.741H49.8ZM45.8 461.741L40 455.866V454.448L47.2 461.741H45.8ZM54.2 461.741L60 455.866V454.448L52.8 461.741H54.2ZM49.8 449.586L50 449.789L50.2 449.586H49.8ZM45.8 449.586L50 453.841L54.2 449.586H52.8L50 452.422L47.2 449.586H45.8Z" fill="#EDEDED"/>
<path fill-rule="evenodd" clip-rule="evenodd" d="M49.8 473.897L40 463.97V462.552L50 472.681L60 462.552V463.97L50.2 473.897H49.8ZM45.8 473.897L40 468.022V466.604L47.2 473.897H45.8ZM54.2 473.897L60 468.022V466.604L52.8 473.897H54.2ZM49.8 461.741L50 461.944L50.2 461.741H49.8ZM45.8 461.741L50 465.996L54.2 461.741H52.8L50 464.578L47.2 461.741H45.8Z" fill="#EDEDED"/>
<path fill-rule="evenodd" clip-rule="evenodd" d="M69.8 461.741L60 451.815V450.397L70 460.526L80 450.397V451.815L70.2 461.741H69.8ZM65.8 461.741L60 455.866V454.448L67.2 461.741H65.8ZM74.2 461.741L80 455.866V454.448L72.8 461.741H74.2ZM69.8 449.586L70 449.789L70.2 449.586H69.8ZM65.8 449.586L70 453.841L74.2 449.586H72.8L70 452.422L67.2 449.586H65.8Z" fill="#EDEDED"/>
<path fill-rule="evenodd" clip-rule="evenodd" d="M69.8 473.897L60 463.97V462.552L70 472.681L80 462.552V463.97L70.2 473.897H69.8ZM65.8 473.897L60 468.022V466.604L67.2 473.897H65.8ZM74.2 473.897L80 468.022V466.604L72.8 473.897H74.2ZM69.8 461.741L70 461.944L70.2 461.741H69.8ZM65.8 461.741L70 465.996L74.2 461.741H72.8L70 464.578L67.2 461.741H65.8Z" fill="#EDEDED"/>
<path fill-rule="evenodd" clip-rule="evenodd" d="M9.8 486.052L0 476.125V474.707L10 484.836L20 474.707V476.125L10.2 486.052H9.8ZM5.8 486.052L0 480.177V478.759L7.2 486.052H5.8ZM14.2 486.052L20 480.177V478.759L12.8 486.052H14.2ZM9.8 473.897L10 474.099L10.2 473.897H9.8ZM5.8 473.897L10 478.151L14.2 473.897H12.8L10 476.733L7.2 473.897H5.8Z" fill="#EDEDED"/>
<path fill-rule="evenodd" clip-rule="evenodd" d="M9.8 498.207L0 488.28V486.862L10 496.991L20 486.862V488.28L10.2 498.207H9.8ZM5.8 498.207L0 492.332V490.914L7.2 498.207H5.8ZM14.2 498.207L20 492.332V490.914L12.8 498.207H14.2ZM9.8 486.052L10 486.254L10.2 486.052H9.8ZM5.8 486.052L10 490.306L14.2 486.052H12.8L10 488.888L7.2 486.052H5.8Z" fill="#EDEDED"/>
<path fill-rule="evenodd" clip-rule="evenodd" d="M29.8 486.052L20 476.125V474.707L30 484.836L40 474.707V476.125L30.2 486.052H29.8ZM25.8 486.052L20 480.177V478.759L27.2 486.052H25.8ZM34.2 486.052L40 480.177V478.759L32.8 486.052H34.2ZM29.8 473.897L30 474.099L30.2 473.897H29.8ZM25.8 473.897L30 478.151L34.2 473.897H32.8L30 476.733L27.2 473.897H25.8Z" fill="#EDEDED"/>
<path fill-rule="evenodd" clip-rule="evenodd" d="M29.8 498.207L20 488.28V486.862L30 496.991L40 486.862V488.28L30.2 498.207H29.8ZM25.8 498.207L20 492.332V490.914L27.2 498.207H25.8ZM34.2 498.207L40 492.332V490.914L32.8 498.207H34.2ZM29.8 486.052L30 486.254L30.2 486.052H29.8ZM25.8 486.052L30 490.306L34.2 486.052H32.8L30 488.888L27.2 486.052H25.8Z" fill="#EDEDED"/>
<path fill-rule="evenodd" clip-rule="evenodd" d="M49.8 486.052L40 476.125V474.707L50 484.836L60 474.707V476.125L50.2 486.052H49.8ZM45.8 486.052L40 480.177V478.759L47.2 486.052H45.8ZM54.2 486.052L60 480.177V478.759L52.8 486.052H54.2ZM49.8 473.897L50 474.099L50.2 473.897H49.8ZM45.8 473.897L50 478.151L54.2 473.897H52.8L50 476.733L47.2 473.897H45.8Z" fill="#EDEDED"/>
<path fill-rule="evenodd" clip-rule="evenodd" d="M49.8 498.207L40 488.28V486.862L50 496.991L60 486.862V488.28L50.2 498.207H49.8ZM45.8 498.207L40 492.332V490.914L47.2 498.207H45.8ZM54.2 498.207L60 492.332V490.914L52.8 498.207H54.2ZM49.8 486.052L50 486.254L50.2 486.052H49.8ZM45.8 486.052L50 490.306L54.2 486.052H52.8L50 488.888L47.2 486.052H45.8Z" fill="#EDEDED"/>
<path fill-rule="evenodd" clip-rule="evenodd" d="M69.8 486.052L60 476.125V474.707L70 484.836L80 474.707V476.125L70.2 486.052H69.8ZM65.8 486.052L60 480.177V478.759L67.2 486.052H65.8ZM74.2 486.052L80 480.177V478.759L72.8 486.052H74.2ZM69.8 473.897L70 474.099L70.2 473.897H69.8ZM65.8 473.897L70 478.151L74.2 473.897H72.8L70 476.733L67.2 473.897H65.8Z" fill="#EDEDED"/>
<path fill-rule="evenodd" clip-rule="evenodd" d="M69.8 498.207L60 488.28V486.862L70 496.991L80 486.862V488.28L70.2 498.207H69.8ZM65.8 498.207L60 492.332V490.914L67.2 498.207H65.8ZM74.2 498.207L80 492.332V490.914L72.8 498.207H74.2ZM69.8 486.052L70 486.254L70.2 486.052H69.8ZM65.8 486.052L70 490.306L74.2 486.052H72.8L70 488.888L67.2 486.052H65.8Z" fill="#EDEDED"/>
<path fill-rule="evenodd" clip-rule="evenodd" d="M9.8 510.362L0 500.435V499.017L10 509.147L20 499.017V500.435L10.2 510.362H9.8ZM5.8 510.362L0 504.487V503.069L7.2 510.362H5.8ZM14.2 510.362L20 504.487V503.069L12.8 510.362H14.2ZM9.8 498.207L10 498.41L10.2 498.207H9.8ZM5.8 498.207L10 502.461L14.2 498.207H12.8L10 501.043L7.2 498.207H5.8Z" fill="#EDEDED"/>
<path fill-rule="evenodd" clip-rule="evenodd" d="M9.8 522.517L0 512.591V511.172L10 521.302L20 511.172V512.591L10.2 522.517H9.8ZM5.8 522.517L0 516.642V515.224L7.2 522.517H5.8ZM14.2 522.517L20 516.642V515.224L12.8 522.517H14.2ZM9.8 510.362L10 510.565L10.2 510.362H9.8ZM5.8 510.362L10 514.616L14.2 510.362H12.8L10 513.198L7.2 510.362H5.8Z" fill="#EDEDED"/>
<path fill-rule="evenodd" clip-rule="evenodd" d="M29.8 510.362L20 500.435V499.017L30 509.147L40 499.017V500.435L30.2 510.362H29.8ZM25.8 510.362L20 504.487V503.069L27.2 510.362H25.8ZM34.2 510.362L40 504.487V503.069L32.8 510.362H34.2ZM29.8 498.207L30 498.41L30.2 498.207H29.8ZM25.8 498.207L30 502.461L34.2 498.207H32.8L30 501.043L27.2 498.207H25.8Z" fill="#EDEDED"/>
<path fill-rule="evenodd" clip-rule="evenodd" d="M29.8 522.517L20 512.591V511.172L30 521.302L40 511.172V512.591L30.2 522.517H29.8ZM25.8 522.517L20 516.642V515.224L27.2 522.517H25.8ZM34.2 522.517L40 516.642V515.224L32.8 522.517H34.2ZM29.8 510.362L30 510.565L30.2 510.362H29.8ZM25.8 510.362L30 514.616L34.2 510.362H32.8L30 513.198L27.2 510.362H25.8Z" fill="#EDEDED"/>
<path fill-rule="evenodd" clip-rule="evenodd" d="M49.8 510.362L40 500.435V499.017L50 509.147L60 499.017V500.435L50.2 510.362H49.8ZM45.8 510.362L40 504.487V503.069L47.2 510.362H45.8ZM54.2 510.362L60 504.487V503.069L52.8 510.362H54.2ZM49.8 498.207L50 498.41L50.2 498.207H49.8ZM45.8 498.207L50 502.461L54.2 498.207H52.8L50 501.043L47.2 498.207H45.8Z" fill="#EDEDED"/>
<path fill-rule="evenodd" clip-rule="evenodd" d="M49.8 522.517L40 512.591V511.172L50 521.302L60 511.172V512.591L50.2 522.517H49.8ZM45.8 522.517L40 516.642V515.224L47.2 522.517H45.8ZM54.2 522.517L60 516.642V515.224L52.8 522.517H54.2ZM49.8 510.362L50 510.565L50.2 510.362H49.8ZM45.8 510.362L50 514.616L54.2 510.362H52.8L50 513.198L47.2 510.362H45.8Z" fill="#EDEDED"/>
<path fill-rule="evenodd" clip-rule="evenodd" d="M69.8 510.362L60 500.435V499.017L70 509.147L80 499.017V500.435L70.2 510.362H69.8ZM65.8 510.362L60 504.487V503.069L67.2 510.362H65.8ZM74.2 510.362L80 504.487V503.069L72.8 510.362H74.2ZM69.8 498.207L70 498.41L70.2 498.207H69.8ZM65.8 498.207L70 502.461L74.2 498.207H72.8L70 501.043L67.2 498.207H65.8Z" fill="#EDEDED"/>
<path fill-rule="evenodd" clip-rule="evenodd" d="M69.8 522.517L60 512.591V511.172L70 521.302L80 511.172V512.591L70.2 522.517H69.8ZM65.8 522.517L60 516.642V515.224L67.2 522.517H65.8ZM74.2 522.517L80 516.642V515.224L72.8 522.517H74.2ZM69.8 510.362L70 510.565L70.2 510.362H69.8ZM65.8 510.362L70 514.616L74.2 510.362H72.8L70 513.198L67.2 510.362H65.8Z" fill="#EDEDED"/>
<path fill-rule="evenodd" clip-rule="evenodd" d="M9.8 534.672L0 524.746V523.328L10 533.457L20 523.328V524.746L10.2 534.672H9.8ZM5.8 534.672L0 528.797V527.379L7.2 534.672H5.8ZM14.2 534.672L20 528.797V527.379L12.8 534.672H14.2ZM9.8 522.517L10 522.72L10.2 522.517H9.8ZM5.8 522.517L10 526.772L14.2 522.517H12.8L10 525.354L7.2 522.517H5.8Z" fill="#EDEDED"/>
<path fill-rule="evenodd" clip-rule="evenodd" d="M9.8 546.828L0 536.901V535.483L10 545.612L20 535.483V536.901L10.2 546.828H9.8ZM5.8 546.828L0 540.953V539.535L7.2 546.828H5.8ZM14.2 546.828L20 540.953V539.535L12.8 546.828H14.2ZM9.8 534.672L10 534.875L10.2 534.672H9.8ZM5.8 534.672L10 538.927L14.2 534.672H12.8L10 537.509L7.2 534.672H5.8Z" fill="#EDEDED"/>
<path fill-rule="evenodd" clip-rule="evenodd" d="M29.8 534.672L20 524.746V523.328L30 533.457L40 523.328V524.746L30.2 534.672H29.8ZM25.8 534.672L20 528.797V527.379L27.2 534.672H25.8ZM34.2 534.672L40 528.797V527.379L32.8 534.672H34.2ZM29.8 522.517L30 522.72L30.2 522.517H29.8ZM25.8 522.517L30 526.772L34.2 522.517H32.8L30 525.354L27.2 522.517H25.8Z" fill="#EDEDED"/>
<path fill-rule="evenodd" clip-rule="evenodd" d="M29.8 546.828L20 536.901V535.483L30 545.612L40 535.483V536.901L30.2 546.828H29.8ZM25.8 546.828L20 540.953V539.535L27.2 546.828H25.8ZM34.2 546.828L40 540.953V539.535L32.8 546.828H34.2ZM29.8 534.672L30 534.875L30.2 534.672H29.8ZM25.8 534.672L30 538.927L34.2 534.672H32.8L30 537.509L27.2 534.672H25.8Z" fill="#EDEDED"/>
<path fill-rule="evenodd" clip-rule="evenodd" d="M49.8 534.672L40 524.746V523.328L50 533.457L60 523.328V524.746L50.2 534.672H49.8ZM45.8 534.672L40 528.797V527.379L47.2 534.672H45.8ZM54.2 534.672L60 528.797V527.379L52.8 534.672H54.2ZM49.8 522.517L50 522.72L50.2 522.517H49.8ZM45.8 522.517L50 526.772L54.2 522.517H52.8L50 525.354L47.2 522.517H45.8Z" fill="#EDEDED"/>
<path fill-rule="evenodd" clip-rule="evenodd" d="M49.8 546.828L40 536.901V535.483L50 545.612L60 535.483V536.901L50.2 546.828H49.8ZM45.8 546.828L40 540.953V539.535L47.2 546.828H45.8ZM54.2 546.828L60 540.953V539.535L52.8 546.828H54.2ZM49.8 534.672L50 534.875L50.2 534.672H49.8ZM45.8 534.672L50 538.927L54.2 534.672H52.8L50 537.509L47.2 534.672H45.8Z" fill="#EDEDED"/>
<path fill-rule="evenodd" clip-rule="evenodd" d="M69.8 534.672L60 524.746V523.328L70 533.457L80 523.328V524.746L70.2 534.672H69.8ZM65.8 534.672L60 528.797V527.379L67.2 534.672H65.8ZM74.2 534.672L80 528.797V527.379L72.8 534.672H74.2ZM69.8 522.517L70 522.72L70.2 522.517H69.8ZM65.8 522.517L70 526.772L74.2 522.517H72.8L70 525.354L67.2 522.517H65.8Z" fill="#EDEDED"/>
<path fill-rule="evenodd" clip-rule="evenodd" d="M69.8 546.828L60 536.901V535.483L70 545.612L80 535.483V536.901L70.2 546.828H69.8ZM65.8 546.828L60 540.953V539.535L67.2 546.828H65.8ZM74.2 546.828L80 540.953V539.535L72.8 546.828H74.2ZM69.8 534.672L70 534.875L70.2 534.672H69.8ZM65.8 534.672L70 538.927L74.2 534.672H72.8L70 537.509L67.2 534.672H65.8Z" fill="#EDEDED"/>
<path fill-rule="evenodd" clip-rule="evenodd" d="M9.8 558.983L0 549.056V547.638L10 557.767L20 547.638V549.056L10.2 558.983H9.8ZM5.8 558.983L0 553.108V551.69L7.2 558.983H5.8ZM14.2 558.983L20 553.108V551.69L12.8 558.983H14.2ZM9.8 546.828L10 547.03L10.2 546.828H9.8ZM5.8 546.828L10 551.082L14.2 546.828H12.8L10 549.664L7.2 546.828H5.8Z" fill="#EDEDED"/>
<path fill-rule="evenodd" clip-rule="evenodd" d="M9.8 571.138L0 561.211V559.793L10 569.922L20 559.793V561.211L10.2 571.138H9.8ZM5.8 571.138L0 565.263V563.845L7.2 571.138H5.8ZM14.2 571.138L20 565.263V563.845L12.8 571.138H14.2ZM9.8 558.983L10 559.185L10.2 558.983H9.8ZM5.8 558.983L10 563.237L14.2 558.983H12.8L10 561.819L7.2 558.983H5.8Z" fill="#EDEDED"/>
<path fill-rule="evenodd" clip-rule="evenodd" d="M29.8 558.983L20 549.056V547.638L30 557.767L40 547.638V549.056L30.2 558.983H29.8ZM25.8 558.983L20 553.108V551.69L27.2 558.983H25.8ZM34.2 558.983L40 553.108V551.69L32.8 558.983H34.2ZM29.8 546.828L30 547.03L30.2 546.828H29.8ZM25.8 546.828L30 551.082L34.2 546.828H32.8L30 549.664L27.2 546.828H25.8Z" fill="#EDEDED"/>
<path fill-rule="evenodd" clip-rule="evenodd" d="M29.8 571.138L20 561.211V559.793L30 569.922L40 559.793V561.211L30.2 571.138H29.8ZM25.8 571.138L20 565.263V563.845L27.2 571.138H25.8ZM34.2 571.138L40 565.263V563.845L32.8 571.138H34.2ZM29.8 558.983L30 559.185L30.2 558.983H29.8ZM25.8 558.983L30 563.237L34.2 558.983H32.8L30 561.819L27.2 558.983H25.8Z" fill="#EDEDED"/>
<path fill-rule="evenodd" clip-rule="evenodd" d="M49.8 558.983L40 549.056V547.638L50 557.767L60 547.638V549.056L50.2 558.983H49.8ZM45.8 558.983L40 553.108V551.69L47.2 558.983H45.8ZM54.2 558.983L60 553.108V551.69L52.8 558.983H54.2ZM49.8 546.828L50 547.03L50.2 546.828H49.8ZM45.8 546.828L50 551.082L54.2 546.828H52.8L50 549.664L47.2 546.828H45.8Z" fill="#EDEDED"/>
<path fill-rule="evenodd" clip-rule="evenodd" d="M49.8 571.138L40 561.211V559.793L50 569.922L60 559.793V561.211L50.2 571.138H49.8ZM45.8 571.138L40 565.263V563.845L47.2 571.138H45.8ZM54.2 571.138L60 565.263V563.845L52.8 571.138H54.2ZM49.8 558.983L50 559.185L50.2 558.983H49.8ZM45.8 558.983L50 563.237L54.2 558.983H52.8L50 561.819L47.2 558.983H45.8Z" fill="#EDEDED"/>
<path fill-rule="evenodd" clip-rule="evenodd" d="M69.8 558.983L60 549.056V547.638L70 557.767L80 547.638V549.056L70.2 558.983H69.8ZM65.8 558.983L60 553.108V551.69L67.2 558.983H65.8ZM74.2 558.983L80 553.108V551.69L72.8 558.983H74.2ZM69.8 546.828L70 547.03L70.2 546.828H69.8ZM65.8 546.828L70 551.082L74.2 546.828H72.8L70 549.664L67.2 546.828H65.8Z" fill="#EDEDED"/>
<path fill-rule="evenodd" clip-rule="evenodd" d="M69.8 571.138L60 561.211V559.793L70 569.922L80 559.793V561.211L70.2 571.138H69.8ZM65.8 571.138L60 565.263V563.845L67.2 571.138H65.8ZM74.2 571.138L80 565.263V563.845L72.8 571.138H74.2ZM69.8 558.983L70 559.185L70.2 558.983H69.8ZM65.8 558.983L70 563.237L74.2 558.983H72.8L70 561.819L67.2 558.983H65.8Z" fill="#EDEDED"/>
<path fill-rule="evenodd" clip-rule="evenodd" d="M9.8 583.293L0 573.366V571.948L10 582.078L20 571.948V573.366L10.2 583.293H9.8ZM5.8 583.293L0 577.418V576L7.2 583.293H5.8ZM14.2 583.293L20 577.418V576L12.8 583.293H14.2ZM9.8 571.138L10 571.341L10.2 571.138H9.8ZM5.8 571.138L10 575.392L14.2 571.138H12.8L10 573.974L7.2 571.138H5.8Z" fill="#EDEDED"/>
<path fill-rule="evenodd" clip-rule="evenodd" d="M9.8 595.448L0 585.522V584.104L10 594.233L20 584.104V585.522L10.2 595.448H9.8ZM5.8 595.448L0 589.573V588.155L7.2 595.448H5.8ZM14.2 595.448L20 589.573V588.155L12.8 595.448H14.2ZM9.8 583.293L10 583.496L10.2 583.293H9.8ZM5.8 583.293L10 587.547L14.2 583.293H12.8L10 586.129L7.2 583.293H5.8Z" fill="#EDEDED"/>
<path fill-rule="evenodd" clip-rule="evenodd" d="M29.8 583.293L20 573.366V571.948L30 582.078L40 571.948V573.366L30.2 583.293H29.8ZM25.8 583.293L20 577.418V576L27.2 583.293H25.8ZM34.2 583.293L40 577.418V576L32.8 583.293H34.2ZM29.8 571.138L30 571.341L30.2 571.138H29.8ZM25.8 571.138L30 575.392L34.2 571.138H32.8L30 573.974L27.2 571.138H25.8Z" fill="#EDEDED"/>
<path fill-rule="evenodd" clip-rule="evenodd" d="M29.8 595.448L20 585.522V584.104L30 594.233L40 584.104V585.522L30.2 595.448H29.8ZM25.8 595.448L20 589.573V588.155L27.2 595.448H25.8ZM34.2 595.448L40 589.573V588.155L32.8 595.448H34.2ZM29.8 583.293L30 583.496L30.2 583.293H29.8ZM25.8 583.293L30 587.547L34.2 583.293H32.8L30 586.129L27.2 583.293H25.8Z" fill="#EDEDED"/>
<path fill-rule="evenodd" clip-rule="evenodd" d="M49.8 583.293L40 573.366V571.948L50 582.078L60 571.948V573.366L50.2 583.293H49.8ZM45.8 583.293L40 577.418V576L47.2 583.293H45.8ZM54.2 583.293L60 577.418V576L52.8 583.293H54.2ZM49.8 571.138L50 571.341L50.2 571.138H49.8ZM45.8 571.138L50 575.392L54.2 571.138H52.8L50 573.974L47.2 571.138H45.8Z" fill="#EDEDED"/>
<path fill-rule="evenodd" clip-rule="evenodd" d="M49.8 595.448L40 585.522V584.104L50 594.233L60 584.104V585.522L50.2 595.448H49.8ZM45.8 595.448L40 589.573V588.155L47.2 595.448H45.8ZM54.2 595.448L60 589.573V588.155L52.8 595.448H54.2ZM49.8 583.293L50 583.496L50.2 583.293H49.8ZM45.8 583.293L50 587.547L54.2 583.293H52.8L50 586.129L47.2 583.293H45.8Z" fill="#EDEDED"/>
<path fill-rule="evenodd" clip-rule="evenodd" d="M69.8 583.293L60 573.366V571.948L70 582.078L80 571.948V573.366L70.2 583.293H69.8ZM65.8 583.293L60 577.418V576L67.2 583.293H65.8ZM74.2 583.293L80 577.418V576L72.8 583.293H74.2ZM69.8 571.138L70 571.341L70.2 571.138H69.8ZM65.8 571.138L70 575.392L74.2 571.138H72.8L70 573.974L67.2 571.138H65.8Z" fill="#EDEDED"/>
<path fill-rule="evenodd" clip-rule="evenodd" d="M69.8 595.448L60 585.522V584.104L70 594.233L80 584.104V585.522L70.2 595.448H69.8ZM65.8 595.448L60 589.573V588.155L67.2 595.448H65.8ZM74.2 595.448L80 589.573V588.155L72.8 595.448H74.2ZM69.8 583.293L70 583.496L70.2 583.293H69.8ZM65.8 583.293L70 587.547L74.2 583.293H72.8L70 586.129L67.2 583.293H65.8Z" fill="#EDEDED"/>
<path fill-rule="evenodd" clip-rule="evenodd" d="M9.8 607.604L0 597.677V596.259L10 606.388L20 596.259V597.677L10.2 607.604H9.8ZM5.8 607.604L0 601.729V600.31L7.2 607.604H5.8ZM14.2 607.604L20 601.729V600.31L12.8 607.604H14.2ZM9.8 595.448L10 595.651L10.2 595.448H9.8ZM5.8 595.448L10 599.703L14.2 595.448H12.8L10 598.285L7.2 595.448H5.8Z" fill="#EDEDED"/>
<path fill-rule="evenodd" clip-rule="evenodd" d="M9.8 619.759L0 609.832V608.414L10 618.543L20 608.414V609.832L10.2 619.759H9.8ZM5.8 619.759L0 613.884V612.466L7.2 619.759H5.8ZM14.2 619.759L20 613.884V612.466L12.8 619.759H14.2ZM9.8 607.604L10 607.806L10.2 607.604H9.8ZM5.8 607.604L10 611.858L14.2 607.604H12.8L10 610.44L7.2 607.604H5.8Z" fill="#EDEDED"/>
<path fill-rule="evenodd" clip-rule="evenodd" d="M29.8 607.604L20 597.677V596.259L30 606.388L40 596.259V597.677L30.2 607.604H29.8ZM25.8 607.604L20 601.729V600.31L27.2 607.604H25.8ZM34.2 607.604L40 601.729V600.31L32.8 607.604H34.2ZM29.8 595.448L30 595.651L30.2 595.448H29.8ZM25.8 595.448L30 599.703L34.2 595.448H32.8L30 598.285L27.2 595.448H25.8Z" fill="#EDEDED"/>
<path fill-rule="evenodd" clip-rule="evenodd" d="M29.8 619.759L20 609.832V608.414L30 618.543L40 608.414V609.832L30.2 619.759H29.8ZM25.8 619.759L20 613.884V612.466L27.2 619.759H25.8ZM34.2 619.759L40 613.884V612.466L32.8 619.759H34.2ZM29.8 607.604L30 607.806L30.2 607.604H29.8ZM25.8 607.604L30 611.858L34.2 607.604H32.8L30 610.44L27.2 607.604H25.8Z" fill="#EDEDED"/>
<path fill-rule="evenodd" clip-rule="evenodd" d="M49.8 607.604L40 597.677V596.259L50 606.388L60 596.259V597.677L50.2 607.604H49.8ZM45.8 607.604L40 601.729V600.31L47.2 607.604H45.8ZM54.2 607.604L60 601.729V600.31L52.8 607.604H54.2ZM49.8 595.448L50 595.651L50.2 595.448H49.8ZM45.8 595.448L50 599.703L54.2 595.448H52.8L50 598.285L47.2 595.448H45.8Z" fill="#EDEDED"/>
<path fill-rule="evenodd" clip-rule="evenodd" d="M49.8 619.759L40 609.832V608.414L50 618.543L60 608.414V609.832L50.2 619.759H49.8ZM45.8 619.759L40 613.884V612.466L47.2 619.759H45.8ZM54.2 619.759L60 613.884V612.466L52.8 619.759H54.2ZM49.8 607.604L50 607.806L50.2 607.604H49.8ZM45.8 607.604L50 611.858L54.2 607.604H52.8L50 610.44L47.2 607.604H45.8Z" fill="#EDEDED"/>
<path fill-rule="evenodd" clip-rule="evenodd" d="M69.8 607.604L60 597.677V596.259L70 606.388L80 596.259V597.677L70.2 607.604H69.8ZM65.8 607.604L60 601.729V600.31L67.2 607.604H65.8ZM74.2 607.604L80 601.729V600.31L72.8 607.604H74.2ZM69.8 595.448L70 595.651L70.2 595.448H69.8ZM65.8 595.448L70 599.703L74.2 595.448H72.8L70 598.285L67.2 595.448H65.8Z" fill="#EDEDED"/>
<path fill-rule="evenodd" clip-rule="evenodd" d="M69.8 619.759L60 609.832V608.414L70 618.543L80 608.414V609.832L70.2 619.759H69.8ZM65.8 619.759L60 613.884V612.466L67.2 619.759H65.8ZM74.2 619.759L80 613.884V612.466L72.8 619.759H74.2ZM69.8 607.604L70 607.806L70.2 607.604H69.8ZM65.8 607.604L70 611.858L74.2 607.604H72.8L70 610.44L67.2 607.604H65.8Z" fill="#EDEDED"/>
<path fill-rule="evenodd" clip-rule="evenodd" d="M9.8 631.914L0 621.987V620.569L10 630.698L20 620.569V621.987L10.2 631.914H9.8ZM5.8 631.914L0 626.039V624.621L7.2 631.914H5.8ZM14.2 631.914L20 626.039V624.621L12.8 631.914H14.2ZM9.8 619.759L10 619.961L10.2 619.759H9.8ZM5.8 619.759L10 624.013L14.2 619.759H12.8L10 622.595L7.2 619.759H5.8Z" fill="#EDEDED"/>
<path fill-rule="evenodd" clip-rule="evenodd" d="M9.8 644.069L0 634.142V632.724L10 642.854L20 632.724V634.142L10.2 644.069H9.8ZM5.8 644.069L0 638.194V636.776L7.2 644.069H5.8ZM14.2 644.069L20 638.194V636.776L12.8 644.069H14.2ZM9.8 631.914L10 632.116L10.2 631.914H9.8ZM5.8 631.914L10 636.168L14.2 631.914H12.8L10 634.75L7.2 631.914H5.8Z" fill="#EDEDED"/>
<path fill-rule="evenodd" clip-rule="evenodd" d="M29.8 631.914L20 621.987V620.569L30 630.698L40 620.569V621.987L30.2 631.914H29.8ZM25.8 631.914L20 626.039V624.621L27.2 631.914H25.8ZM34.2 631.914L40 626.039V624.621L32.8 631.914H34.2ZM29.8 619.759L30 619.961L30.2 619.759H29.8ZM25.8 619.759L30 624.013L34.2 619.759H32.8L30 622.595L27.2 619.759H25.8Z" fill="#EDEDED"/>
<path fill-rule="evenodd" clip-rule="evenodd" d="M29.8 644.069L20 634.142V632.724L30 642.854L40 632.724V634.142L30.2 644.069H29.8ZM25.8 644.069L20 638.194V636.776L27.2 644.069H25.8ZM34.2 644.069L40 638.194V636.776L32.8 644.069H34.2ZM29.8 631.914L30 632.116L30.2 631.914H29.8ZM25.8 631.914L30 636.168L34.2 631.914H32.8L30 634.75L27.2 631.914H25.8Z" fill="#EDEDED"/>
<path fill-rule="evenodd" clip-rule="evenodd" d="M49.8 631.914L40 621.987V620.569L50 630.698L60 620.569V621.987L50.2 631.914H49.8ZM45.8 631.914L40 626.039V624.621L47.2 631.914H45.8ZM54.2 631.914L60 626.039V624.621L52.8 631.914H54.2ZM49.8 619.759L50 619.961L50.2 619.759H49.8ZM45.8 619.759L50 624.013L54.2 619.759H52.8L50 622.595L47.2 619.759H45.8Z" fill="#EDEDED"/>
<path fill-rule="evenodd" clip-rule="evenodd" d="M49.8 644.069L40 634.142V632.724L50 642.854L60 632.724V634.142L50.2 644.069H49.8ZM45.8 644.069L40 638.194V636.776L47.2 644.069H45.8ZM54.2 644.069L60 638.194V636.776L52.8 644.069H54.2ZM49.8 631.914L50 632.116L50.2 631.914H49.8ZM45.8 631.914L50 636.168L54.2 631.914H52.8L50 634.75L47.2 631.914H45.8Z" fill="#EDEDED"/>
<path fill-rule="evenodd" clip-rule="evenodd" d="M69.8 631.914L60 621.987V620.569L70 630.698L80 620.569V621.987L70.2 631.914H69.8ZM65.8 631.914L60 626.039V624.621L67.2 631.914H65.8ZM74.2 631.914L80 626.039V624.621L72.8 631.914H74.2ZM69.8 619.759L70 619.961L70.2 619.759H69.8ZM65.8 619.759L70 624.013L74.2 619.759H72.8L70 622.595L67.2 619.759H65.8Z" fill="#EDEDED"/>
<path fill-rule="evenodd" clip-rule="evenodd" d="M69.8 644.069L60 634.142V632.724L70 642.854L80 632.724V634.142L70.2 644.069H69.8ZM65.8 644.069L60 638.194V636.776L67.2 644.069H65.8ZM74.2 644.069L80 638.194V636.776L72.8 644.069H74.2ZM69.8 631.914L70 632.116L70.2 631.914H69.8ZM65.8 631.914L70 636.168L74.2 631.914H72.8L70 634.75L67.2 631.914H65.8Z" fill="#EDEDED"/>
<path fill-rule="evenodd" clip-rule="evenodd" d="M9.8 656.224L0 646.297V644.879L10 655.009L20 644.879V646.297L10.2 656.224H9.8ZM5.8 656.224L0 650.349V648.931L7.2 656.224H5.8ZM14.2 656.224L20 650.349V648.931L12.8 656.224H14.2ZM9.8 644.069L10 644.272L10.2 644.069H9.8ZM5.8 644.069L10 648.323L14.2 644.069H12.8L10 646.905L7.2 644.069H5.8Z" fill="#EDEDED"/>
<path fill-rule="evenodd" clip-rule="evenodd" d="M9.8 668.379L0 658.453V657.035L10 667.164L20 657.035V658.453L10.2 668.379H9.8ZM5.8 668.379L0 662.504V661.086L7.2 668.379H5.8ZM14.2 668.379L20 662.504V661.086L12.8 668.379H14.2ZM9.8 656.224L10 656.427L10.2 656.224H9.8ZM5.8 656.224L10 660.479L14.2 656.224H12.8L10 659.06L7.2 656.224H5.8Z" fill="#EDEDED"/>
<path fill-rule="evenodd" clip-rule="evenodd" d="M29.8 656.224L20 646.297V644.879L30 655.009L40 644.879V646.297L30.2 656.224H29.8ZM25.8 656.224L20 650.349V648.931L27.2 656.224H25.8ZM34.2 656.224L40 650.349V648.931L32.8 656.224H34.2ZM29.8 644.069L30 644.272L30.2 644.069H29.8ZM25.8 644.069L30 648.323L34.2 644.069H32.8L30 646.905L27.2 644.069H25.8Z" fill="#EDEDED"/>
<path fill-rule="evenodd" clip-rule="evenodd" d="M29.8 668.379L20 658.453V657.035L30 667.164L40 657.035V658.453L30.2 668.379H29.8ZM25.8 668.379L20 662.504V661.086L27.2 668.379H25.8ZM34.2 668.379L40 662.504V661.086L32.8 668.379H34.2ZM29.8 656.224L30 656.427L30.2 656.224H29.8ZM25.8 656.224L30 660.479L34.2 656.224H32.8L30 659.06L27.2 656.224H25.8Z" fill="#EDEDED"/>
<path fill-rule="evenodd" clip-rule="evenodd" d="M49.8 656.224L40 646.297V644.879L50 655.009L60 644.879V646.297L50.2 656.224H49.8ZM45.8 656.224L40 650.349V648.931L47.2 656.224H45.8ZM54.2 656.224L60 650.349V648.931L52.8 656.224H54.2ZM49.8 644.069L50 644.272L50.2 644.069H49.8ZM45.8 644.069L50 648.323L54.2 644.069H52.8L50 646.905L47.2 644.069H45.8Z" fill="#EDEDED"/>
<path fill-rule="evenodd" clip-rule="evenodd" d="M49.8 668.379L40 658.453V657.035L50 667.164L60 657.035V658.453L50.2 668.379H49.8ZM45.8 668.379L40 662.504V661.086L47.2 668.379H45.8ZM54.2 668.379L60 662.504V661.086L52.8 668.379H54.2ZM49.8 656.224L50 656.427L50.2 656.224H49.8ZM45.8 656.224L50 660.479L54.2 656.224H52.8L50 659.06L47.2 656.224H45.8Z" fill="#EDEDED"/>
<path fill-rule="evenodd" clip-rule="evenodd" d="M69.8 656.224L60 646.297V644.879L70 655.009L80 644.879V646.297L70.2 656.224H69.8ZM65.8 656.224L60 650.349V648.931L67.2 656.224H65.8ZM74.2 656.224L80 650.349V648.931L72.8 656.224H74.2ZM69.8 644.069L70 644.272L70.2 644.069H69.8ZM65.8 644.069L70 648.323L74.2 644.069H72.8L70 646.905L67.2 644.069H65.8Z" fill="#EDEDED"/>
<path fill-rule="evenodd" clip-rule="evenodd" d="M69.8 668.379L60 658.453V657.035L70 667.164L80 657.035V658.453L70.2 668.379H69.8ZM65.8 668.379L60 662.504V661.086L67.2 668.379H65.8ZM74.2 668.379L80 662.504V661.086L72.8 668.379H74.2ZM69.8 656.224L70 656.427L70.2 656.224H69.8ZM65.8 656.224L70 660.479L74.2 656.224H72.8L70 659.06L67.2 656.224H65.8Z" fill="#EDEDED"/>
<path fill-rule="evenodd" clip-rule="evenodd" d="M9.8 680.535L0 670.608V669.19L10 679.319L20 669.19V670.608L10.2 680.535H9.8ZM5.8 680.535L0 674.66V673.241L7.2 680.535H5.8ZM14.2 680.535L20 674.66V673.241L12.8 680.535H14.2ZM9.8 668.379L10 668.582L10.2 668.379H9.8ZM5.8 668.379L10 672.634L14.2 668.379H12.8L10 671.216L7.2 668.379H5.8Z" fill="#EDEDED"/>
<path fill-rule="evenodd" clip-rule="evenodd" d="M9.8 692.69L0 682.763V681.345L10 691.474L20 681.345V682.763L10.2 692.69H9.8ZM5.8 692.69L0 686.815V685.397L7.2 692.69H5.8ZM14.2 692.69L20 686.815V685.397L12.8 692.69H14.2ZM9.8 680.535L10 680.737L10.2 680.535H9.8ZM5.8 680.535L10 684.789L14.2 680.535H12.8L10 683.371L7.2 680.535H5.8Z" fill="#EDEDED"/>
<path fill-rule="evenodd" clip-rule="evenodd" d="M29.8 680.535L20 670.608V669.19L30 679.319L40 669.19V670.608L30.2 680.535H29.8ZM25.8 680.535L20 674.66V673.241L27.2 680.535H25.8ZM34.2 680.535L40 674.66V673.241L32.8 680.535H34.2ZM29.8 668.379L30 668.582L30.2 668.379H29.8ZM25.8 668.379L30 672.634L34.2 668.379H32.8L30 671.216L27.2 668.379H25.8Z" fill="#EDEDED"/>
<path fill-rule="evenodd" clip-rule="evenodd" d="M29.8 692.69L20 682.763V681.345L30 691.474L40 681.345V682.763L30.2 692.69H29.8ZM25.8 692.69L20 686.815V685.397L27.2 692.69H25.8ZM34.2 692.69L40 686.815V685.397L32.8 692.69H34.2ZM29.8 680.535L30 680.737L30.2 680.535H29.8ZM25.8 680.535L30 684.789L34.2 680.535H32.8L30 683.371L27.2 680.535H25.8Z" fill="#EDEDED"/>
<path fill-rule="evenodd" clip-rule="evenodd" d="M49.8 680.535L40 670.608V669.19L50 679.319L60 669.19V670.608L50.2 680.535H49.8ZM45.8 680.535L40 674.66V673.241L47.2 680.535H45.8ZM54.2 680.535L60 674.66V673.241L52.8 680.535H54.2ZM49.8 668.379L50 668.582L50.2 668.379H49.8ZM45.8 668.379L50 672.634L54.2 668.379H52.8L50 671.216L47.2 668.379H45.8Z" fill="#EDEDED"/>
<path fill-rule="evenodd" clip-rule="evenodd" d="M49.8 692.69L40 682.763V681.345L50 691.474L60 681.345V682.763L50.2 692.69H49.8ZM45.8 692.69L40 686.815V685.397L47.2 692.69H45.8ZM54.2 692.69L60 686.815V685.397L52.8 692.69H54.2ZM49.8 680.535L50 680.737L50.2 680.535H49.8ZM45.8 680.535L50 684.789L54.2 680.535H52.8L50 683.371L47.2 680.535H45.8Z" fill="#EDEDED"/>
<path fill-rule="evenodd" clip-rule="evenodd" d="M69.8 680.535L60 670.608V669.19L70 679.319L80 669.19V670.608L70.2 680.535H69.8ZM65.8 680.535L60 674.66V673.241L67.2 680.535H65.8ZM74.2 680.535L80 674.66V673.241L72.8 680.535H74.2ZM69.8 668.379L70 668.582L70.2 668.379H69.8ZM65.8 668.379L70 672.634L74.2 668.379H72.8L70 671.216L67.2 668.379H65.8Z" fill="#EDEDED"/>
<path fill-rule="evenodd" clip-rule="evenodd" d="M69.8 692.69L60 682.763V681.345L70 691.474L80 681.345V682.763L70.2 692.69H69.8ZM65.8 692.69L60 686.815V685.397L67.2 692.69H65.8ZM74.2 692.69L80 686.815V685.397L72.8 692.69H74.2ZM69.8 680.535L70 680.737L70.2 680.535H69.8ZM65.8 680.535L70 684.789L74.2 680.535H72.8L70 683.371L67.2 680.535H65.8Z" fill="#EDEDED"/>
<path fill-rule="evenodd" clip-rule="evenodd" d="M9.8 704.845L0 694.918V693.5L10 703.629L20 693.5V694.918L10.2 704.845H9.8ZM5.8 704.845L0 698.97V697.552L7.2 704.845H5.8ZM14.2 704.845L20 698.97V697.552L12.8 704.845H14.2ZM9.8 692.69L10 692.892L10.2 692.69H9.8ZM5.8 692.69L10 696.944L14.2 692.69H12.8L10 695.526L7.2 692.69H5.8Z" fill="#EDEDED"/>
<path fill-rule="evenodd" clip-rule="evenodd" d="M9.8 717L0 707.073V705.655L10 715.785L20 705.655V707.073L10.2 717H9.8ZM5.8 717L0 711.125V709.707L7.2 717H5.8ZM14.2 717L20 711.125V709.707L12.8 717H14.2ZM9.8 704.845L10 705.047L10.2 704.845H9.8ZM5.8 704.845L10 709.099L14.2 704.845H12.8L10 707.681L7.2 704.845H5.8Z" fill="#EDEDED"/>
<path fill-rule="evenodd" clip-rule="evenodd" d="M29.8 704.845L20 694.918V693.5L30 703.629L40 693.5V694.918L30.2 704.845H29.8ZM25.8 704.845L20 698.97V697.552L27.2 704.845H25.8ZM34.2 704.845L40 698.97V697.552L32.8 704.845H34.2ZM29.8 692.69L30 692.892L30.2 692.69H29.8ZM25.8 692.69L30 696.944L34.2 692.69H32.8L30 695.526L27.2 692.69H25.8Z" fill="#EDEDED"/>
<path fill-rule="evenodd" clip-rule="evenodd" d="M29.8 717L20 707.073V705.655L30 715.785L40 705.655V707.073L30.2 717H29.8ZM25.8 717L20 711.125V709.707L27.2 717H25.8ZM34.2 717L40 711.125V709.707L32.8 717H34.2ZM29.8 704.845L30 705.047L30.2 704.845H29.8ZM25.8 704.845L30 709.099L34.2 704.845H32.8L30 707.681L27.2 704.845H25.8Z" fill="#EDEDED"/>
<path fill-rule="evenodd" clip-rule="evenodd" d="M49.8 704.845L40 694.918V693.5L50 703.629L60 693.5V694.918L50.2 704.845H49.8ZM45.8 704.845L40 698.97V697.552L47.2 704.845H45.8ZM54.2 704.845L60 698.97V697.552L52.8 704.845H54.2ZM49.8 692.69L50 692.892L50.2 692.69H49.8ZM45.8 692.69L50 696.944L54.2 692.69H52.8L50 695.526L47.2 692.69H45.8Z" fill="#EDEDED"/>
<path fill-rule="evenodd" clip-rule="evenodd" d="M49.8 717L40 707.073V705.655L50 715.785L60 705.655V707.073L50.2 717H49.8ZM45.8 717L40 711.125V709.707L47.2 717H45.8ZM54.2 717L60 711.125V709.707L52.8 717H54.2ZM49.8 704.845L50 705.047L50.2 704.845H49.8ZM45.8 704.845L50 709.099L54.2 704.845H52.8L50 707.681L47.2 704.845H45.8Z" fill="#EDEDED"/>
<path fill-rule="evenodd" clip-rule="evenodd" d="M69.8 704.845L60 694.918V693.5L70 703.629L80 693.5V694.918L70.2 704.845H69.8ZM65.8 704.845L60 698.97V697.552L67.2 704.845H65.8ZM74.2 704.845L80 698.97V697.552L72.8 704.845H74.2ZM69.8 692.69L70 692.892L70.2 692.69H69.8ZM65.8 692.69L70 696.944L74.2 692.69H72.8L70 695.526L67.2 692.69H65.8Z" fill="#EDEDED"/>
<path fill-rule="evenodd" clip-rule="evenodd" d="M69.8 717L60 707.073V705.655L70 715.785L80 705.655V707.073L70.2 717H69.8ZM65.8 717L60 711.125V709.707L67.2 717H65.8ZM74.2 717L80 711.125V709.707L72.8 717H74.2ZM69.8 704.845L70 705.047L70.2 704.845H69.8ZM65.8 704.845L70 709.099L74.2 704.845H72.8L70 707.681L67.2 704.845H65.8Z" fill="#EDEDED"/>
</svg>
